<?xml version="1.0" encoding="UTF-8"?>
<!DOCTYPE svg PUBLIC "-//W3C//DTD SVG 1.1//EN" "http://www.w3.org/Graphics/SVG/1.1/DTD/svg11.dtd">
<svg xmlns="http://www.w3.org/2000/svg" version="1.1" width="500px" height="323px" style="shape-rendering:geometricPrecision; text-rendering:geometricPrecision; image-rendering:optimizeQuality; fill-rule:evenodd; clip-rule:evenodd" xmlns:xlink="http://www.w3.org/1999/xlink">
<g><path style="opacity:1" fill="#1a1810" d="M 271.5,24.5 C 271.833,24.5 272.167,24.5 272.5,24.5C 275.589,25.7846 278.922,26.4512 282.5,26.5C 286.912,27.9704 291.245,29.6371 295.5,31.5C 292.124,31.0484 288.791,30.3818 285.5,29.5C 284.614,30.325 284.281,31.325 284.5,32.5C 287.917,32.023 290.584,33.023 292.5,35.5C 291.5,35.5 290.5,35.5 289.5,35.5C 282.867,32.7597 275.867,31.093 268.5,30.5C 258.092,28.3938 247.759,28.0604 237.5,29.5C 234.43,29.3677 231.43,29.701 228.5,30.5C 223.379,30.9642 218.379,31.9642 213.5,33.5C 210.421,34.304 207.421,35.304 204.5,36.5C 196.125,38.8557 188.458,42.5223 181.5,47.5C 179.326,47.7497 177.659,48.7497 176.5,50.5C 171.208,53.488 166.208,56.988 161.5,61C 156.298,66.3697 150.965,71.5364 145.5,76.5C 146.312,73.7245 147.979,71.5579 150.5,70C 149.725,68.7705 148.725,68.4372 147.5,69C 146.023,71.4449 144.19,73.6116 142,75.5C 141.601,75.2716 141.435,74.9382 141.5,74.5C 145.772,68.8902 150.438,63.5569 155.5,58.5C 166.778,48.8911 179.112,40.8911 192.5,34.5C 194.403,34.2041 196.07,33.5375 197.5,32.5C 206.481,29.3914 215.481,26.7248 224.5,24.5C 225.833,24.5 227.167,24.5 228.5,24.5C 242.829,23.186 257.163,23.186 271.5,24.5 Z"/></g>
<g><path style="opacity:1" fill="#e3d16f" d="M 253.5,30.5 C 255.167,30.5 256.833,30.5 258.5,30.5C 258.48,54.8749 258.48,79.0415 258.5,103C 256.527,103.495 254.527,103.662 252.5,103.5C 252.828,79.2586 252.494,55.0919 251.5,31C 252.094,30.5357 252.761,30.369 253.5,30.5 Z"/></g>
<g><path style="opacity:1" fill="#ecdd79" d="M 237.5,29.5 C 243.026,29.1786 248.36,29.5119 253.5,30.5C 252.761,30.369 252.094,30.5357 251.5,31C 252.494,55.0919 252.828,79.2586 252.5,103.5C 250.833,104.167 249.167,104.833 247.5,105.5C 241.518,105.827 236.185,107.827 231.5,111.5C 230.325,111.719 229.325,111.386 228.5,110.5C 229.759,84.1508 229.759,57.8174 228.5,31.5C 228.5,31.1667 228.5,30.8333 228.5,30.5C 231.43,29.701 234.43,29.3677 237.5,29.5 Z"/></g>
<g><path style="opacity:1" fill="#f9ec84" d="M 241.5,30.5 C 242.5,30.5 243.5,30.5 244.5,30.5C 244.833,54.5093 244.5,78.5093 243.5,102.5C 241.54,103.723 239.707,105.056 238,106.5C 237.355,105.354 236.522,104.354 235.5,103.5C 236.49,79.5451 236.823,55.5451 236.5,31.5C 238.415,31.7845 240.081,31.4511 241.5,30.5 Z"/></g>
<g><path style="opacity:1" fill="#d7c264" d="M 237.5,29.5 C 247.759,28.0604 258.092,28.3938 268.5,30.5C 268.5,30.8333 268.5,31.1667 268.5,31.5C 269.144,56.327 268.477,80.9936 266.5,105.5C 269.229,107.367 268.896,108.367 265.5,108.5C 259.8,105.949 253.8,104.949 247.5,105.5C 249.167,104.833 250.833,104.167 252.5,103.5C 254.527,103.662 256.527,103.495 258.5,103C 258.48,79.0415 258.48,54.8749 258.5,30.5C 256.833,30.5 255.167,30.5 253.5,30.5C 248.36,29.5119 243.026,29.1786 237.5,29.5 Z"/></g>
<g><path style="opacity:1" fill="#cbb255" d="M 268.5,31.5 C 272.924,32.4563 277.257,33.623 281.5,35C 279.833,35.3333 278.167,35.6667 276.5,36C 275.978,36.5613 275.645,37.228 275.5,38C 276.486,63.1163 276.819,88.1163 276.5,113C 275.167,113.667 273.833,113.667 272.5,113C 271.211,111.198 269.544,110.031 267.5,109.5C 266.508,109.672 265.842,109.338 265.5,108.5C 268.896,108.367 269.229,107.367 266.5,105.5C 268.477,80.9936 269.144,56.327 268.5,31.5 Z"/></g>
<g><path style="opacity:1" fill="#b89841" d="M 289.5,35.5 C 290.5,35.5 291.5,35.5 292.5,35.5C 292.842,36.3382 293.508,36.6716 294.5,36.5C 294.5,37.1667 294.5,37.8333 294.5,38.5C 292.826,83.53 291.826,128.863 291.5,174.5C 292.269,177.624 293.936,178.291 296.5,176.5C 296.5,177.5 296.5,178.5 296.5,179.5C 292.856,179.708 290.689,181.708 290,185.5C 289.667,183.167 289.333,180.833 289,178.5C 287.989,177.663 286.822,177.33 285.5,177.5C 285.828,130.458 285.495,83.4577 284.5,36.5C 286.045,35.5481 287.712,35.2148 289.5,35.5 Z"/></g>
<g><path style="opacity:1" fill="#ceb759" d="M 213.5,37.5 C 214.216,37.7831 215.049,38.1164 216,38.5C 216.825,68.2088 216.658,97.8755 215.5,127.5C 217.313,130.709 218.313,134.209 218.5,138C 217.562,151.812 217.229,165.646 217.5,179.5C 215.955,180.23 215.122,181.563 215,183.5C 214.29,182.027 213.124,181.36 211.5,181.5C 211.443,180.391 211.11,179.391 210.5,178.5C 210.918,177.778 211.584,177.278 212.5,177C 211.831,130.863 211.164,84.6964 210.5,38.5C 211.325,37.6143 212.325,37.281 213.5,37.5 Z"/></g>
<g><path style="opacity:1" fill="#c4a74c" d="M 213.5,33.5 C 212.595,34.7024 212.595,36.0357 213.5,37.5C 212.325,37.281 211.325,37.6143 210.5,38.5C 211.164,84.6964 211.831,130.863 212.5,177C 211.584,177.278 210.918,177.778 210.5,178.5C 208.585,178.784 206.919,178.451 205.5,177.5C 204.515,131.197 204.182,84.8633 204.5,38.5C 204.5,37.8333 204.5,37.1667 204.5,36.5C 207.421,35.304 210.421,34.304 213.5,33.5 Z"/></g>
<g><path style="opacity:1" fill="#d4be63" d="M 228.5,30.5 C 228.5,30.8333 228.5,31.1667 228.5,31.5C 225.618,32.8113 222.618,33.9779 219.5,35C 220.163,62.7674 220.829,90.6007 221.5,118.5C 222.192,119.025 222.692,119.692 223,120.5C 223.417,119.244 224.25,118.577 225.5,118.5C 224.559,120.05 223.893,121.716 223.5,123.5C 220.192,129.476 219.692,135.81 222,142.5C 222.705,145.476 223.871,148.142 225.5,150.5C 226.779,153.112 228.445,155.445 230.5,157.5C 228.956,157.297 227.622,156.63 226.5,155.5C 224.833,158.167 223.167,158.167 221.5,155.5C 220.728,162.841 220.062,170.174 219.5,177.5C 222.237,177.401 224.904,177.735 227.5,178.5C 230.292,178.452 232.125,179.785 233,182.5C 233.78,184.387 233.613,186.054 232.5,187.5C 232.919,184.675 231.919,182.509 229.5,181C 225.637,179.646 221.637,179.146 217.5,179.5C 217.229,165.646 217.562,151.812 218.5,138C 218.313,134.209 217.313,130.709 215.5,127.5C 216.658,97.8755 216.825,68.2088 216,38.5C 215.049,38.1164 214.216,37.7831 213.5,37.5C 212.595,36.0357 212.595,34.7024 213.5,33.5C 218.379,31.9642 223.379,30.9642 228.5,30.5 Z"/></g>
<g><path style="opacity:0.999" fill="#9a752c" d="M 168.5,31.5 C 166.145,34.067 165.311,37.067 166,40.5C 167.067,41.1905 168.234,41.6905 169.5,42C 167.998,42.5831 166.665,43.4164 165.5,44.5C 166.333,44.8333 167.167,45.1667 168,45.5C 174.301,43.2005 180.134,40.0338 185.5,36C 187.813,35.338 190.146,34.838 192.5,34.5C 179.112,40.8911 166.778,48.8911 155.5,58.5C 154.167,58.5 152.833,58.5 151.5,58.5C 151.5,57.1667 151.5,55.8333 151.5,54.5C 149.876,54.6399 148.71,53.9733 148,52.5C 146.273,56.4489 145.606,60.4489 146,64.5C 143.523,61.2762 142.857,57.6095 144,53.5C 147.239,50.6733 149.739,47.34 151.5,43.5C 154.576,40.4475 157.91,37.6142 161.5,35C 163.577,33.295 165.91,32.1283 168.5,31.5 Z"/></g>
<g><path style="opacity:1" fill="#bb9b44" d="M 204.5,38.5 C 204.182,84.8633 204.515,131.197 205.5,177.5C 202.833,177.5 200.167,177.5 197.5,177.5C 197.611,176.883 197.944,176.383 198.5,176C 198.15,132.422 197.15,88.9216 195.5,45.5C 196.5,45.5 197.5,45.5 198.5,45.5C 198.5,43.5 198.5,41.5 198.5,39.5C 200.5,39.1667 202.5,38.8333 204.5,38.5 Z"/></g>
<g><path style="opacity:1" fill="#ddcb6a" d="M 228.5,31.5 C 229.759,57.8174 229.759,84.1508 228.5,110.5C 229.325,111.386 230.325,111.719 231.5,111.5C 229.471,113.858 227.471,116.192 225.5,118.5C 224.25,118.577 223.417,119.244 223,120.5C 222.692,119.692 222.192,119.025 221.5,118.5C 220.829,90.6007 220.163,62.7674 219.5,35C 222.618,33.9779 225.618,32.8113 228.5,31.5 Z"/></g>
<g><path style="opacity:1" fill="#c0a54d" d="M 268.5,31.5 C 268.5,31.1667 268.5,30.8333 268.5,30.5C 275.867,31.093 282.867,32.7597 289.5,35.5C 287.712,35.2148 286.045,35.5481 284.5,36.5C 285.495,83.4577 285.828,130.458 285.5,177.5C 284.178,177.33 283.011,177.663 282,178.5C 282.114,183.606 281.28,188.273 279.5,192.5C 277.403,188.628 275.069,184.961 272.5,181.5C 272.5,181.167 272.5,180.833 272.5,180.5C 273.873,180.343 275.207,180.51 276.5,181C 275.61,184.047 276.776,186.214 280,187.5C 280.534,183.141 280.368,178.808 279.5,174.5C 280.822,174.67 281.989,174.337 283,173.5C 283.946,163.245 283.446,153.079 281.5,143C 282.106,139.707 282.439,136.373 282.5,133C 282.442,129.724 281.776,126.724 280.5,124C 281.784,122.703 281.617,121.536 280,120.5C 278.812,121.563 278.312,122.897 278.5,124.5C 275.167,124.5 271.833,124.5 268.5,124.5C 267.5,123.833 266.5,123.167 265.5,122.5C 269.514,122.666 273.514,122.499 277.5,122C 274.713,117.381 271.38,113.215 267.5,109.5C 269.544,110.031 271.211,111.198 272.5,113C 273.833,113.667 275.167,113.667 276.5,113C 276.819,88.1163 276.486,63.1163 275.5,38C 275.645,37.228 275.978,36.5613 276.5,36C 278.167,35.6667 279.833,35.3333 281.5,35C 277.257,33.623 272.924,32.4563 268.5,31.5 Z"/></g>
<g><path style="opacity:1" fill="#b28f3b" d="M 294.5,38.5 C 295.833,38.8333 297.167,39.1667 298.5,39.5C 298.83,84.4055 298.497,129.239 297.5,174C 299.857,175.22 299.524,176.053 296.5,176.5C 293.936,178.291 292.269,177.624 291.5,174.5C 291.826,128.863 292.826,83.53 294.5,38.5 Z"/></g>
<g><path style="opacity:1" fill="#af8b35" d="M 298.5,39.5 C 300.059,41.2501 302.059,42.2501 304.5,42.5C 302.958,43.1408 301.624,44.1408 300.5,45.5C 301.247,45.7365 302.08,46.0698 303,46.5C 303.667,88.5 303.667,130.5 303,172.5C 302.5,173 302,173.5 301.5,174C 302.337,175.011 302.67,176.178 302.5,177.5C 300.142,177.253 298.142,177.919 296.5,179.5C 296.5,178.5 296.5,177.5 296.5,176.5C 299.524,176.053 299.857,175.22 297.5,174C 298.497,129.239 298.83,84.4055 298.5,39.5 Z"/></g>
<g><path style="opacity:1" fill="#95702a" d="M 327.5,29.5 C 337.945,35.0518 347.278,42.0518 355.5,50.5C 352.944,49.6223 350.61,48.2889 348.5,46.5C 347.914,46.7093 347.414,47.0426 347,47.5C 347.209,43.5408 345.375,41.8742 341.5,42.5C 342.815,47.3814 343.815,52.3814 344.5,57.5C 345.82,59.2701 347.32,59.6034 349,58.5C 349.275,61.4123 350.109,64.079 351.5,66.5C 340.996,56.6522 329.663,47.9856 317.5,40.5C 319.949,41.0574 322.282,41.0574 324.5,40.5C 325.762,38.4248 325.595,36.4248 324,34.5C 323.667,35.8333 323.333,37.1667 323,38.5C 322.712,35.4698 322.545,32.6365 322.5,30C 324.134,29.5065 325.801,29.3398 327.5,29.5 Z"/></g>
<g><path style="opacity:1" fill="#ab8634" d="M 304.5,42.5 C 306.928,44.2485 309.594,45.5819 312.5,46.5C 310.83,89.5459 309.83,132.713 309.5,176C 312.39,177.892 312.056,178.725 308.5,178.5C 308.167,178.5 307.833,178.5 307.5,178.5C 306.081,177.549 304.415,177.216 302.5,177.5C 302.67,176.178 302.337,175.011 301.5,174C 302,173.5 302.5,173 303,172.5C 303.667,130.5 303.667,88.5 303,46.5C 302.08,46.0698 301.247,45.7365 300.5,45.5C 301.624,44.1408 302.958,43.1408 304.5,42.5 Z"/></g>
<g><path style="opacity:1" fill="#af8c38" d="M 204.5,36.5 C 204.5,37.1667 204.5,37.8333 204.5,38.5C 202.5,38.8333 200.5,39.1667 198.5,39.5C 198.5,41.5 198.5,43.5 198.5,45.5C 197.5,45.5 196.5,45.5 195.5,45.5C 194.542,45.9528 193.708,46.6195 193,47.5C 192.667,91.1667 192.333,134.833 192,178.5C 191.385,180.116 190.385,181.449 189,182.5C 188.51,183.793 188.343,185.127 188.5,186.5C 186.733,184.208 185.733,181.542 185.5,178.5C 183.5,178.5 181.5,178.5 179.5,178.5C 181.631,177.686 183.964,177.186 186.5,177C 185.09,176.632 184.09,175.799 183.5,174.5C 184.164,131.97 184.831,89.4703 185.5,47C 184.181,46.805 182.847,46.9717 181.5,47.5C 188.458,42.5223 196.125,38.8557 204.5,36.5 Z"/></g>
<g><path style="opacity:1" fill="#b3903c" d="M 195.5,45.5 C 197.15,88.9216 198.15,132.422 198.5,176C 197.944,176.383 197.611,176.883 197.5,177.5C 196.504,177.414 195.671,177.748 195,178.5C 194.95,182.859 194.117,187.026 192.5,191C 194.317,193.606 194.817,196.44 194,199.5C 191.721,195.427 189.888,191.094 188.5,186.5C 188.343,185.127 188.51,183.793 189,182.5C 190.385,181.449 191.385,180.116 192,178.5C 192.333,134.833 192.667,91.1667 193,47.5C 193.708,46.6195 194.542,45.9528 195.5,45.5 Z"/></g>
<g><path style="opacity:1" fill="#1a1611" d="M 295.5,31.5 C 297.5,31.8333 299.5,32.1667 301.5,32.5C 306.768,35.134 312.101,37.8007 317.5,40.5C 329.663,47.9856 340.996,56.6522 351.5,66.5C 355.53,71.5244 359.53,76.5244 363.5,81.5C 377.226,102.277 385.893,124.944 389.5,149.5C 390.144,165.675 388.811,181.675 385.5,197.5C 384.205,199.979 383.205,202.646 382.5,205.5C 380.067,207.618 378.4,210.284 377.5,213.5C 377.167,212.833 376.833,212.167 376.5,211.5C 377.488,208.218 378.154,204.885 378.5,201.5C 384.921,176.546 385.088,151.546 379,126.5C 376.672,119.194 373.839,112.194 370.5,105.5C 367.92,99.3315 364.586,93.6649 360.5,88.5C 359.214,85.883 357.547,83.5496 355.5,81.5C 350.566,73.5647 344.233,66.898 336.5,61.5C 330.753,56.0932 324.42,51.4265 317.5,47.5C 310.229,43.0314 302.562,39.3647 294.5,36.5C 293.508,36.6716 292.842,36.3382 292.5,35.5C 290.584,33.023 287.917,32.023 284.5,32.5C 284.281,31.325 284.614,30.325 285.5,29.5C 288.791,30.3818 292.124,31.0484 295.5,31.5 Z"/></g>
<g><path style="opacity:1" fill="#aa8533" d="M 179.5,178.5 C 178.5,178.5 177.5,178.5 176.5,178.5C 176.636,137.272 176.47,95.9384 176,54.5C 175.617,53.944 175.117,53.6107 174.5,53.5C 175.167,52.5 175.833,51.5 176.5,50.5C 177.659,48.7497 179.326,47.7497 181.5,47.5C 182.847,46.9717 184.181,46.805 185.5,47C 184.831,89.4703 184.164,131.97 183.5,174.5C 184.09,175.799 185.09,176.632 186.5,177C 183.964,177.186 181.631,177.686 179.5,178.5 Z"/></g>
<g><path style="opacity:1" fill="#a57f30" d="M 294.5,36.5 C 302.562,39.3647 310.229,43.0314 317.5,47.5C 319.374,49.1147 320.708,51.1147 321.5,53.5C 320.325,53.281 319.325,53.6143 318.5,54.5C 318.624,55.1067 318.957,55.44 319.5,55.5C 319.333,94.8347 319.5,134.168 320,173.5C 321.098,174.967 322.598,175.801 324.5,176C 323.263,176.232 322.263,176.732 321.5,177.5C 320.883,177.611 320.383,177.944 320,178.5C 319.667,182.167 319.333,185.833 319,189.5C 318.108,186.716 316.942,184.05 315.5,181.5C 314.311,180.571 312.978,180.238 311.5,180.5C 309.973,180.573 308.973,179.906 308.5,178.5C 312.056,178.725 312.39,177.892 309.5,176C 309.83,132.713 310.83,89.5459 312.5,46.5C 309.594,45.5819 306.928,44.2485 304.5,42.5C 302.059,42.2501 300.059,41.2501 298.5,39.5C 297.167,39.1667 295.833,38.8333 294.5,38.5C 294.5,37.8333 294.5,37.1667 294.5,36.5 Z"/></g>
<g><path style="opacity:1" fill="#a47f2e" d="M 174.5,53.5 C 175.117,53.6107 175.617,53.944 176,54.5C 176.47,95.9384 176.636,137.272 176.5,178.5C 177.5,178.5 178.5,178.5 179.5,178.5C 179.5,178.833 179.5,179.167 179.5,179.5C 178.833,181.167 178.167,182.833 177.5,184.5C 175.084,185.968 172.417,186.635 169.5,186.5C 168.851,183.184 166.851,181.184 163.5,180.5C 163.714,178.856 163.38,177.356 162.5,176C 163.5,175.667 164.5,175.333 165.5,175C 165.167,174.667 164.833,174.333 164.5,174C 165.827,155.718 166.493,137.218 166.5,118.5C 166.475,99.3507 165.809,80.3507 164.5,61.5C 167.019,58.9832 170.019,57.3166 173.5,56.5C 173.263,55.209 173.596,54.209 174.5,53.5 Z"/></g>
<g><path style="opacity:1" fill="#9f782a" d="M 333.5,196.5 C 333.5,197.167 333.5,197.833 333.5,198.5C 332.866,199.947 331.699,200.613 330,200.5C 328.93,200.472 328.097,200.139 327.5,199.5C 327.666,192.492 327.5,185.492 327,178.5C 325.301,177.594 323.467,177.261 321.5,177.5C 322.263,176.732 323.263,176.232 324.5,176C 322.598,175.801 321.098,174.967 320,173.5C 319.5,134.168 319.333,94.8347 319.5,55.5C 321.311,54.178 323.311,53.678 325.5,54C 327.167,55.6667 328.833,57.3333 330.5,59C 326.544,60.1139 326.544,60.9473 330.5,61.5C 330.333,99.5015 330.5,137.501 331,175.5C 332.131,182.512 332.964,189.512 333.5,196.5 Z"/></g>
<g><path style="opacity:0.999" fill="#8f6720" d="M 151.5,43.5 C 149.739,47.34 147.239,50.6733 144,53.5C 142.857,57.6095 143.523,61.2762 146,64.5C 145.606,60.4489 146.273,56.4489 148,52.5C 148.71,53.9733 149.876,54.6399 151.5,54.5C 151.5,55.8333 151.5,57.1667 151.5,58.5C 152.833,58.5 154.167,58.5 155.5,58.5C 150.438,63.5569 145.772,68.8902 141.5,74.5C 140.5,75.1667 139.5,75.8333 138.5,76.5C 137.5,76.5 136.5,76.5 135.5,76.5C 135.5,77.5 135.5,78.5 135.5,79.5C 134.5,79.5 133.5,79.5 132.5,79.5C 132.88,81.698 132.213,83.3646 130.5,84.5C 130.225,81.5929 129.558,78.4262 128.5,75C 128.354,72.9658 129.02,71.2991 130.5,70C 129.874,69.2496 129.374,68.4162 129,67.5C 128.241,69.0629 127.074,70.0629 125.5,70.5C 132.821,60.1794 141.488,51.1794 151.5,43.5 Z"/></g>
<g><path style="opacity:0.999" fill="#8c631e" d="M 355.5,50.5 C 359.167,53.5 362.5,56.8333 365.5,60.5C 363.909,64.2036 363.076,68.2036 363,72.5C 361.982,71.2941 361.482,71.6274 361.5,73.5C 362.378,76.1298 363.045,78.7965 363.5,81.5C 359.53,76.5244 355.53,71.5244 351.5,66.5C 350.109,64.079 349.275,61.4123 349,58.5C 347.32,59.6034 345.82,59.2701 344.5,57.5C 343.815,52.3814 342.815,47.3814 341.5,42.5C 345.375,41.8742 347.209,43.5408 347,47.5C 347.414,47.0426 347.914,46.7093 348.5,46.5C 350.61,48.2889 352.944,49.6223 355.5,50.5 Z"/></g>
<g><path style="opacity:1" fill="#997225" d="M 317.5,47.5 C 324.42,51.4265 330.753,56.0932 336.5,61.5C 337.413,63.0861 337.413,64.5861 336.5,66C 337.793,66.49 339.127,66.6567 340.5,66.5C 340.567,67.9587 340.234,69.2921 339.5,70.5C 338.168,104.569 338.168,138.736 339.5,173C 335.81,173.424 335.643,174.258 339,175.5C 339.483,176.448 339.649,177.448 339.5,178.5C 337.5,178.5 335.5,178.5 333.5,178.5C 333.5,184.5 333.5,190.5 333.5,196.5C 332.964,189.512 332.131,182.512 331,175.5C 330.5,137.501 330.333,99.5015 330.5,61.5C 326.544,60.9473 326.544,60.1139 330.5,59C 328.833,57.3333 327.167,55.6667 325.5,54C 323.311,53.678 321.311,54.178 319.5,55.5C 318.957,55.44 318.624,55.1067 318.5,54.5C 319.325,53.6143 320.325,53.281 321.5,53.5C 320.708,51.1147 319.374,49.1147 317.5,47.5 Z"/></g>
<g><path style="opacity:1" fill="#9e782b" d="M 164.5,61.5 C 165.809,80.3507 166.475,99.3507 166.5,118.5C 166.493,137.218 165.827,155.718 164.5,174C 164.833,174.333 165.167,174.667 165.5,175C 164.5,175.333 163.5,175.667 162.5,176C 163.38,177.356 163.714,178.856 163.5,180.5C 160.034,178.908 156.367,178.242 152.5,178.5C 154.265,177.539 156.265,177.205 158.5,177.5C 158.667,141.498 158.5,105.498 158,69.5C 157.617,68.944 157.117,68.6107 156.5,68.5C 158.569,65.4275 161.236,63.0941 164.5,61.5 Z"/></g>
<g><path style="opacity:0.122" fill="#f3ecd7" d="M 367.5,61.5 C 369.587,62.5846 370.92,64.2512 371.5,66.5C 369.413,65.4154 368.08,63.7488 367.5,61.5 Z"/></g>
<g><path style="opacity:0.129" fill="#f1e7ca" d="M 371.5,66.5 C 373.262,67.2623 374.262,68.5956 374.5,70.5C 372.738,69.7377 371.738,68.4044 371.5,66.5 Z"/></g>
<g><path style="opacity:1" fill="#956c23" d="M 346.5,174.5 C 346.611,175.117 346.944,175.617 347.5,176C 345.111,176.739 343.111,177.905 341.5,179.5C 341.5,180.833 341.5,182.167 341.5,183.5C 342.568,184.434 343.901,184.768 345.5,184.5C 345.175,191.687 345.509,198.687 346.5,205.5C 345.563,221.138 345.229,236.805 345.5,252.5C 344.325,252.281 343.325,252.614 342.5,253.5C 343.309,255.071 343.643,256.738 343.5,258.5C 341.588,260.99 339.255,262.99 336.5,264.5C 336.709,263.078 337.209,261.745 338,260.5C 338.185,247.122 338.685,233.788 339.5,220.5C 337.581,221.087 335.581,221.087 333.5,220.5C 334.239,220.631 334.906,220.464 335.5,220C 335.5,218.667 335.5,217.333 335.5,216C 334.906,215.536 334.239,215.369 333.5,215.5C 333.5,214.5 333.5,213.5 333.5,212.5C 334.5,212.5 335.5,212.5 336.5,212.5C 336.5,210.167 336.5,207.833 336.5,205.5C 335.167,205.5 333.833,205.5 332.5,205.5C 335.842,204.323 338.009,201.989 339,198.5C 339.5,192.175 339.666,185.842 339.5,179.5C 337.833,179.5 336.167,179.5 334.5,179.5C 334.823,186.022 334.49,192.355 333.5,198.5C 333.5,197.833 333.5,197.167 333.5,196.5C 333.5,190.5 333.5,184.5 333.5,178.5C 335.5,178.5 337.5,178.5 339.5,178.5C 339.649,177.448 339.483,176.448 339,175.5C 335.643,174.258 335.81,173.424 339.5,173C 338.168,138.736 338.168,104.569 339.5,70.5C 340.583,70.4606 341.583,70.1272 342.5,69.5C 343.389,72.3888 344.722,75.0554 346.5,77.5C 346.482,109.655 346.482,141.988 346.5,174.5 Z"/></g>
<g><path style="opacity:1" fill="#8b6e34" d="M 176.5,50.5 C 175.833,51.5 175.167,52.5 174.5,53.5C 173.596,54.209 173.263,55.209 173.5,56.5C 170.019,57.3166 167.019,58.9832 164.5,61.5C 161.236,63.0941 158.569,65.4275 156.5,68.5C 153.833,70.5 151.5,72.8333 149.5,75.5C 146.834,78.8467 144.168,82.18 141.5,85.5C 140.571,86.6888 140.238,88.0222 140.5,89.5C 139.5,89.5 138.5,89.5 137.5,89.5C 139.905,85.0274 142.571,80.694 145.5,76.5C 150.965,71.5364 156.298,66.3697 161.5,61C 166.208,56.988 171.208,53.488 176.5,50.5 Z"/></g>
<g><path style="opacity:0.157" fill="#eadfce" d="M 374.5,70.5 C 378.156,73.8033 380.822,77.8033 382.5,82.5C 379.34,78.8523 376.673,74.8523 374.5,70.5 Z"/></g>
<g><path style="opacity:1" fill="#997225" d="M 156.5,68.5 C 157.117,68.6107 157.617,68.944 158,69.5C 158.5,105.498 158.667,141.498 158.5,177.5C 156.265,177.205 154.265,177.539 152.5,178.5C 151.167,178.5 149.833,178.5 148.5,178.5C 148.215,176.712 148.548,175.045 149.5,173.5C 150.192,174.025 150.692,174.692 151,175.5C 151.667,143.167 151.667,110.833 151,78.5C 149.961,77.7562 149.461,76.7562 149.5,75.5C 151.5,72.8333 153.833,70.5 156.5,68.5 Z"/></g>
<g><path style="opacity:1" fill="#8f661e" d="M 336.5,61.5 C 344.233,66.898 350.566,73.5647 355.5,81.5C 355.756,112.669 356.756,143.836 358.5,175C 357.964,176.377 356.964,176.377 355.5,175C 352.518,174.502 349.518,174.335 346.5,174.5C 346.482,141.988 346.482,109.655 346.5,77.5C 344.722,75.0554 343.389,72.3888 342.5,69.5C 341.583,70.1272 340.583,70.4606 339.5,70.5C 340.234,69.2921 340.567,67.9587 340.5,66.5C 339.127,66.6567 337.793,66.49 336.5,66C 337.413,64.5861 337.413,63.0861 336.5,61.5 Z"/></g>
<g><path style="opacity:1" fill="#956b21" d="M 149.5,75.5 C 149.461,76.7562 149.961,77.7562 151,78.5C 151.667,110.833 151.667,143.167 151,175.5C 150.692,174.692 150.192,174.025 149.5,173.5C 148.548,175.045 148.215,176.712 148.5,178.5C 147.115,179.574 145.949,180.907 145,182.5C 143.87,180.067 142.704,177.734 141.5,175.5C 144.907,175.875 145.407,174.875 143,172.5C 143.079,144.753 142.246,117.086 140.5,89.5C 140.238,88.0222 140.571,86.6888 141.5,85.5C 144.168,82.18 146.834,78.8467 149.5,75.5 Z"/></g>
<g><path style="opacity:0.055" fill="#eee8d6" d="M 382.5,82.5 C 384.25,83.6594 385.25,85.326 385.5,87.5C 383.75,86.3406 382.75,84.674 382.5,82.5 Z"/></g>
<g><path style="opacity:0.999" fill="#7e5213" d="M 365.5,60.5 C 366.167,60.8333 366.833,61.1667 367.5,61.5C 368.08,63.7488 369.413,65.4154 371.5,66.5C 371.738,68.4044 372.738,69.7377 374.5,70.5C 376.673,74.8523 379.34,78.8523 382.5,82.5C 382.75,84.674 383.75,86.3406 385.5,87.5C 385.338,89.5273 385.505,91.5273 386,93.5C 388.019,94.3574 389.519,95.6908 390.5,97.5C 390.5,98.1667 390.5,98.8333 390.5,99.5C 389.448,99.3505 388.448,99.5172 387.5,100C 388.397,116.431 389.064,132.931 389.5,149.5C 385.893,124.944 377.226,102.277 363.5,81.5C 363.045,78.7965 362.378,76.1298 361.5,73.5C 361.482,71.6274 361.982,71.2941 363,72.5C 363.076,68.2036 363.909,64.2036 365.5,60.5 Z"/></g>
<g><path style="opacity:1" fill="#8c611c" d="M 355.5,81.5 C 357.547,83.5496 359.214,85.883 360.5,88.5C 360.5,90.5 360.5,92.5 360.5,94.5C 362.359,94.4609 363.692,95.2942 364.5,97C 363.795,127.049 363.295,157.216 363,187.5C 362.5,188 362,188.5 361.5,189C 363.284,196.566 364.118,204.399 364,212.5C 364.5,213 365,213.5 365.5,214C 364.426,214.739 363.759,215.739 363.5,217C 364.634,219.627 366.3,221.793 368.5,223.5C 362.372,236.76 354.039,248.427 343.5,258.5C 343.643,256.738 343.309,255.071 342.5,253.5C 343.325,252.614 344.325,252.281 345.5,252.5C 345.229,236.805 345.563,221.138 346.5,205.5C 348.167,205.5 349.833,205.5 351.5,205.5C 351.5,198.167 351.5,190.833 351.5,183.5C 352.833,183.5 354.167,183.5 355.5,183.5C 355.5,182.167 355.5,180.833 355.5,179.5C 350.833,179.5 346.167,179.5 341.5,179.5C 343.111,177.905 345.111,176.739 347.5,176C 346.944,175.617 346.611,175.117 346.5,174.5C 349.518,174.335 352.518,174.502 355.5,175C 356.964,176.377 357.964,176.377 358.5,175C 356.756,143.836 355.756,112.669 355.5,81.5 Z"/></g>
<g><path style="opacity:0.998" fill="#835816" d="M 130.5,84.5 C 127.038,90.868 123.371,97.2013 119.5,103.5C 119.709,104.086 120.043,104.586 120.5,105C 119.049,108.737 117.216,112.237 115,115.5C 114.506,113.866 114.34,112.199 114.5,110.5C 113.5,110.5 112.5,110.5 111.5,110.5C 111.587,113.598 111.087,113.932 110,111.5C 109.617,112.056 109.117,112.389 108.5,112.5C 107.54,110.539 106.207,108.873 104.5,107.5C 109.437,93.9203 116.437,81.587 125.5,70.5C 127.074,70.0629 128.241,69.0629 129,67.5C 129.374,68.4162 129.874,69.2496 130.5,70C 129.02,71.2991 128.354,72.9658 128.5,75C 129.558,78.4262 130.225,81.5929 130.5,84.5 Z"/></g>
<g><path style="opacity:1" fill="#90661e" d="M 137.5,89.5 C 138.5,89.5 139.5,89.5 140.5,89.5C 142.246,117.086 143.079,144.753 143,172.5C 145.407,174.875 144.907,175.875 141.5,175.5C 142.704,177.734 143.87,180.067 145,182.5C 145.949,180.907 147.115,179.574 148.5,178.5C 149.833,178.5 151.167,178.5 152.5,178.5C 142.297,184.1 140.297,191.767 146.5,201.5C 145.033,200.708 143.7,200.708 142.5,201.5C 143.246,202.736 143.579,204.07 143.5,205.5C 144.5,205.5 145.5,205.5 146.5,205.5C 146.232,216.858 146.565,228.191 147.5,239.5C 147.61,241.374 146.944,242.874 145.5,244C 146.624,244.249 147.624,244.749 148.5,245.5C 147.147,246.524 146.48,247.857 146.5,249.5C 142.763,245.698 139.763,241.365 137.5,236.5C 136.735,233.904 136.401,231.237 136.5,228.5C 130.774,226.212 129.44,222.378 132.5,217C 131.196,181.507 131.196,146.007 132.5,110.5C 133.208,107.634 133.875,104.8 134.5,102C 132.893,100.951 132.227,99.451 132.5,97.5C 133.383,94.2957 135.05,91.6291 137.5,89.5 Z"/></g>
<g><path style="opacity:0.914" fill="#b69e7e" d="M 385.5,87.5 C 387.696,90.5578 389.362,93.8911 390.5,97.5C 389.519,95.6908 388.019,94.3574 386,93.5C 385.505,91.5273 385.338,89.5273 385.5,87.5 Z"/></g>
<g><path style="opacity:1" fill="#1b160f" d="M 145.5,76.5 C 142.571,80.694 139.905,85.0274 137.5,89.5C 135.05,91.6291 133.383,94.2957 132.5,97.5C 124.193,110.155 119.193,124.155 117.5,139.5C 115.793,147.261 114.793,155.261 114.5,163.5C 114.791,171.408 115.791,179.074 117.5,186.5C 117.978,192.703 119.311,198.703 121.5,204.5C 120.503,204.53 119.836,204.03 119.5,203C 118.251,198.338 116.585,193.838 114.5,189.5C 114.167,190.167 113.833,190.833 113.5,191.5C 114.82,196.113 115.82,200.779 116.5,205.5C 115.013,201.884 113.68,198.217 112.5,194.5C 103.821,151.227 112.488,111.893 138.5,76.5C 139.5,75.8333 140.5,75.1667 141.5,74.5C 141.435,74.9382 141.601,75.2716 142,75.5C 144.19,73.6116 146.023,71.4449 147.5,69C 148.725,68.4372 149.725,68.7705 150.5,70C 147.979,71.5579 146.312,73.7245 145.5,76.5 Z"/></g>
<g><path style="opacity:0.078" fill="#f8f4e4" d="M 367.5,61.5 C 366.833,61.1667 366.167,60.8333 365.5,60.5C 362.5,56.8333 359.167,53.5 355.5,50.5C 347.278,42.0518 337.945,35.0518 327.5,29.5C 316.693,22.5993 305.027,17.5993 292.5,14.5C 279.639,10.2225 266.305,8.22246 252.5,8.5C 244.16,8.3336 235.827,8.50027 227.5,9C 226.263,9.23209 225.263,9.73209 224.5,10.5C 220.36,10.5291 216.36,11.1958 212.5,12.5C 201.979,14.9558 191.979,18.6224 182.5,23.5C 177.173,25.1588 172.507,27.8255 168.5,31.5C 165.91,32.1283 163.577,33.295 161.5,35C 157.91,37.6142 154.576,40.4475 151.5,43.5C 141.488,51.1794 132.821,60.1794 125.5,70.5C 116.437,81.587 109.437,93.9203 104.5,107.5C 101.284,115.579 98.9503,123.912 97.5,132.5C 96.2621,136.619 95.4288,140.953 95,145.5C 94.1745,156.341 94.3412,167.008 95.5,177.5C 96.3977,194.842 100.731,211.175 108.5,226.5C 111.441,233.715 114.941,240.715 119,247.5C 121.031,250.355 123.197,253.022 125.5,255.5C 130.538,262.523 135.871,269.19 141.5,275.5C 138.606,274.118 136.106,272.118 134,269.5C 91.5455,219.352 81.8788,163.352 105,101.5C 128.621,50.9232 167.788,19.7565 222.5,8C 271.736,0.560952 315.07,12.8943 352.5,45C 358.098,50.0914 363.098,55.5914 367.5,61.5 Z"/></g>
<g><path style="opacity:0.999" fill="#a88534" d="M 197.5,32.5 C 196.07,33.5375 194.403,34.2041 192.5,34.5C 190.146,34.838 187.813,35.338 185.5,36C 180.134,40.0338 174.301,43.2005 168,45.5C 167.167,45.1667 166.333,44.8333 165.5,44.5C 166.665,43.4164 167.998,42.5831 169.5,42C 168.234,41.6905 167.067,41.1905 166,40.5C 165.311,37.067 166.145,34.067 168.5,31.5C 172.507,27.8255 177.173,25.1588 182.5,23.5C 188,22.6413 193.167,20.9746 198,18.5C 200.912,18.358 202.412,19.6913 202.5,22.5C 200.833,22.5 199.167,22.5 197.5,22.5C 197.151,26.0542 197.151,29.3875 197.5,32.5 Z"/></g>
<g><path style="opacity:1" fill="#ba9e4d" d="M 212.5,12.5 C 211.599,14.7271 209.933,15.7271 207.5,15.5C 207.337,17.8568 207.503,20.1902 208,22.5C 209.473,22.1321 210.973,22.6321 212.5,24C 211.062,24.2189 209.729,24.7189 208.5,25.5C 209.333,25.8333 210.167,26.1667 211,26.5C 215.441,25.378 219.941,24.7114 224.5,24.5C 215.481,26.7248 206.481,29.3914 197.5,32.5C 197.151,29.3875 197.151,26.0542 197.5,22.5C 199.167,22.5 200.833,22.5 202.5,22.5C 202.412,19.6913 200.912,18.358 198,18.5C 193.167,20.9746 188,22.6413 182.5,23.5C 191.979,18.6224 201.979,14.9558 212.5,12.5 Z"/></g>
<g><path style="opacity:0.999" fill="#a48134" d="M 292.5,14.5 C 305.027,17.5993 316.693,22.5993 327.5,29.5C 325.801,29.3398 324.134,29.5065 322.5,30C 322.545,32.6365 322.712,35.4698 323,38.5C 323.333,37.1667 323.667,35.8333 324,34.5C 325.595,36.4248 325.762,38.4248 324.5,40.5C 322.282,41.0574 319.949,41.0574 317.5,40.5C 312.101,37.8007 306.768,35.134 301.5,32.5C 302.756,32.5386 303.756,32.0386 304.5,31C 303.398,28.5991 303.231,26.0991 304,23.5C 307.013,22.4354 307.013,21.1021 304,19.5C 301.865,18.8729 299.698,18.3729 297.5,18C 295.404,17.2635 293.737,16.0968 292.5,14.5 Z"/></g>
<g><path style="opacity:0.996" fill="#cec279" d="M 256.5,21.5 C 257.833,21.5 259.167,21.5 260.5,21.5C 264.267,22.0972 267.934,23.0972 271.5,24.5C 257.163,23.186 242.829,23.186 228.5,24.5C 228.328,23.5084 228.662,22.8417 229.5,22.5C 238.479,21.7345 247.479,21.4011 256.5,21.5 Z"/></g>
<g><path style="opacity:1" fill="#b1913c" d="M 292.5,14.5 C 293.737,16.0968 295.404,17.2635 297.5,18C 299.698,18.3729 301.865,18.8729 304,19.5C 307.013,21.1021 307.013,22.4354 304,23.5C 303.231,26.0991 303.398,28.5991 304.5,31C 303.756,32.0386 302.756,32.5386 301.5,32.5C 299.5,32.1667 297.5,31.8333 295.5,31.5C 291.245,29.6371 286.912,27.9704 282.5,26.5C 288.261,26.2912 288.594,25.4578 283.5,24C 285.758,21.2751 286.091,18.2751 284.5,15C 287.146,14.5026 289.813,14.3359 292.5,14.5 Z"/></g>
<g><path style="opacity:1" fill="#f1e380" d="M 252.5,8.5 C 252.5,8.83333 252.5,9.16667 252.5,9.5C 252.918,10.2216 253.584,10.7216 254.5,11C 252.656,13.8037 251.989,16.9703 252.5,20.5C 254.099,20.2322 255.432,20.5655 256.5,21.5C 247.479,21.4011 238.479,21.7345 229.5,22.5C 229.5,18.5 229.5,14.5 229.5,10.5C 227.833,10.5 226.167,10.5 224.5,10.5C 225.263,9.73209 226.263,9.23209 227.5,9C 235.827,8.50027 244.16,8.3336 252.5,8.5 Z"/></g>
<g><path style="opacity:1" fill="#d4be60" d="M 224.5,10.5 C 226.167,10.5 227.833,10.5 229.5,10.5C 229.5,14.5 229.5,18.5 229.5,22.5C 228.662,22.8417 228.328,23.5084 228.5,24.5C 227.167,24.5 225.833,24.5 224.5,24.5C 219.941,24.7114 215.441,25.378 211,26.5C 210.167,26.1667 209.333,25.8333 208.5,25.5C 209.729,24.7189 211.062,24.2189 212.5,24C 210.973,22.6321 209.473,22.1321 208,22.5C 207.503,20.1902 207.337,17.8568 207.5,15.5C 209.933,15.7271 211.599,14.7271 212.5,12.5C 216.36,11.1958 220.36,10.5291 224.5,10.5 Z"/></g>
<g><path style="opacity:0.999" fill="#bea453" d="M 252.5,9.5 C 252.5,9.16667 252.5,8.83333 252.5,8.5C 266.305,8.22246 279.639,10.2225 292.5,14.5C 289.813,14.3359 287.146,14.5026 284.5,15C 286.091,18.2751 285.758,21.2751 283.5,24C 288.594,25.4578 288.261,26.2912 282.5,26.5C 278.922,26.4512 275.589,25.7846 272.5,24.5C 274.833,24.5 277.167,24.5 279.5,24.5C 279.5,20.5 279.5,16.5 279.5,12.5C 273.248,11.0353 266.914,10.0353 260.5,9.5C 257.833,9.5 255.167,9.5 252.5,9.5 Z"/></g>
<g><path style="opacity:1" fill="#cfb65a" d="M 260.5,9.5 C 266.914,10.0353 273.248,11.0353 279.5,12.5C 279.5,16.5 279.5,20.5 279.5,24.5C 277.167,24.5 274.833,24.5 272.5,24.5C 272.167,24.5 271.833,24.5 271.5,24.5C 267.934,23.0972 264.267,22.0972 260.5,21.5C 261.166,18.6417 261.833,15.6417 262.5,12.5C 263.308,12.1924 263.975,11.6924 264.5,11C 262.942,10.79 261.609,10.29 260.5,9.5 Z"/></g>
<g><path style="opacity:1" fill="#dfcc6a" d="M 252.5,9.5 C 255.167,9.5 257.833,9.5 260.5,9.5C 261.609,10.29 262.942,10.79 264.5,11C 263.975,11.6924 263.308,12.1924 262.5,12.5C 261.833,15.6417 261.166,18.6417 260.5,21.5C 259.167,21.5 257.833,21.5 256.5,21.5C 255.432,20.5655 254.099,20.2322 252.5,20.5C 251.989,16.9703 252.656,13.8037 254.5,11C 253.584,10.7216 252.918,10.2216 252.5,9.5 Z"/></g>
<g><path style="opacity:0.043" fill="#fbf7e7" d="M 391.5,99.5 C 393.293,101.426 394.293,103.759 394.5,106.5C 392.707,104.574 391.707,102.241 391.5,99.5 Z"/></g>
<g><path style="opacity:0.99" fill="#886839" d="M 390.5,97.5 C 391.338,97.8417 391.672,98.5084 391.5,99.5C 391.707,102.241 392.707,104.574 394.5,106.5C 395.404,107.209 395.737,108.209 395.5,109.5C 395.5,109.833 395.5,110.167 395.5,110.5C 393.815,109.816 392.815,108.483 392.5,106.5C 391.675,105.614 390.675,105.281 389.5,105.5C 389.833,103.5 390.167,101.5 390.5,99.5C 390.5,98.8333 390.5,98.1667 390.5,97.5 Z"/></g>
<g><path style="opacity:1" fill="#875a16" d="M 360.5,88.5 C 364.586,93.6649 367.92,99.3315 370.5,105.5C 370.347,108.577 371.014,111.411 372.5,114C 372.294,115.366 371.96,116.699 371.5,118C 372.862,122.398 373.696,126.898 374,131.5C 374.5,132 375,132.5 375.5,133C 373.683,153.937 372.85,175.104 373,196.5C 371.224,199.669 371.057,203.002 372.5,206.5C 371.626,212.326 370.293,217.993 368.5,223.5C 366.3,221.793 364.634,219.627 363.5,217C 363.759,215.739 364.426,214.739 365.5,214C 365,213.5 364.5,213 364,212.5C 364.118,204.399 363.284,196.566 361.5,189C 362,188.5 362.5,188 363,187.5C 363.295,157.216 363.795,127.049 364.5,97C 363.692,95.2942 362.359,94.4609 360.5,94.5C 360.5,92.5 360.5,90.5 360.5,88.5 Z"/></g>
<g><path style="opacity:1" fill="#885e19" d="M 132.5,97.5 C 132.227,99.451 132.893,100.951 134.5,102C 133.875,104.8 133.208,107.634 132.5,110.5C 131.196,146.007 131.196,181.507 132.5,217C 129.44,222.378 130.774,226.212 136.5,228.5C 136.401,231.237 136.735,233.904 137.5,236.5C 130.602,226.704 125.269,216.038 121.5,204.5C 119.311,198.703 117.978,192.703 117.5,186.5C 116.189,170.832 116.189,155.165 117.5,139.5C 119.193,124.155 124.193,110.155 132.5,97.5 Z"/></g>
<g><path style="opacity:1" fill="#7c541a" d="M 138.5,76.5 C 112.488,111.893 103.821,151.227 112.5,194.5C 111.015,192.751 110.015,190.751 109.5,188.5C 108.061,175.04 107.061,161.54 106.5,148C 106.914,144.919 107.914,141.752 109.5,138.5C 109.597,136.055 108.93,133.889 107.5,132C 109.834,125.692 110.167,119.192 108.5,112.5C 109.117,112.389 109.617,112.056 110,111.5C 111.087,113.932 111.587,113.598 111.5,110.5C 112.5,110.5 113.5,110.5 114.5,110.5C 114.34,112.199 114.506,113.866 115,115.5C 117.216,112.237 119.049,108.737 120.5,105C 120.043,104.586 119.709,104.086 119.5,103.5C 123.371,97.2013 127.038,90.868 130.5,84.5C 132.213,83.3646 132.88,81.698 132.5,79.5C 133.5,79.5 134.5,79.5 135.5,79.5C 135.5,78.5 135.5,77.5 135.5,76.5C 136.5,76.5 137.5,76.5 138.5,76.5 Z"/></g>
<g><path style="opacity:0.021" fill="#faf7ec" d="M 395.5,109.5 C 398.013,113.378 399.346,117.711 399.5,122.5C 397.997,118.659 396.664,114.659 395.5,110.5C 395.5,110.167 395.5,109.833 395.5,109.5 Z"/></g>
<g><path style="opacity:1" fill="#e5d471" d="M 247.5,116.5 C 251.136,116.594 254.636,117.261 258,118.5C 258.167,123.667 258.333,128.833 258.5,134C 258.601,140.245 258.101,146.411 257,152.5C 255.262,153.127 253.429,153.46 251.5,153.5C 249.36,153.444 247.694,152.777 246.5,151.5C 246.938,151.565 247.272,151.399 247.5,151C 246.833,150.667 246.167,150.333 245.5,150C 247.464,139.088 248.131,127.922 247.5,116.5 Z"/></g>
<g><path style="opacity:1" fill="#d7c268" d="M 265.5,122.5 C 266.5,123.167 267.5,123.833 268.5,124.5C 269.105,131.618 268.438,138.452 266.5,145C 270.169,146.093 273.836,146.926 277.5,147.5C 272.968,147.182 268.634,147.515 264.5,148.5C 255.746,157.131 246.746,157.465 237.5,149.5C 240.308,150.929 243.308,151.595 246.5,151.5C 247.694,152.777 249.36,153.444 251.5,153.5C 253.429,153.46 255.262,153.127 257,152.5C 258.101,146.411 258.601,140.245 258.5,134C 258.333,128.833 258.167,123.667 258,118.5C 254.636,117.261 251.136,116.594 247.5,116.5C 245.167,117.167 242.833,117.833 240.5,118.5C 241.347,117.034 242.68,116.2 244.5,116C 253.001,113.768 260.001,115.934 265.5,122.5 Z"/></g>
<g><path style="opacity:0.012" fill="#ece5d8" d="M 399.5,122.5 C 402.035,126.355 403.035,130.688 402.5,135.5C 400.925,131.41 399.925,127.077 399.5,122.5 Z"/></g>
<g><path style="opacity:1" fill="#f7ea83" d="M 247.5,116.5 C 248.131,127.922 247.464,139.088 245.5,150C 246.167,150.333 246.833,150.667 247.5,151C 247.272,151.399 246.938,151.565 246.5,151.5C 243.308,151.595 240.308,150.929 237.5,149.5C 237.404,147.404 237.404,145.237 237.5,143C 235.423,141.924 234.09,140.257 233.5,138C 236.204,136.171 237.037,133.671 236,130.5C 235.667,130.833 235.333,131.167 235,131.5C 234.333,129.5 234.333,127.5 235,125.5C 236.011,124.663 237.178,124.33 238.5,124.5C 238.704,122.315 239.37,120.315 240.5,118.5C 242.833,117.833 245.167,117.167 247.5,116.5 Z"/></g>
<g><path style="opacity:1" fill="#c6ab52" d="M 272.5,180.5 C 270.735,179.539 268.735,179.205 266.5,179.5C 268.305,173.717 268.972,167.717 268.5,161.5C 271.91,161.616 273.244,159.95 272.5,156.5C 273.806,154.184 275.139,151.85 276.5,149.5C 277.338,149.158 277.672,148.492 277.5,147.5C 273.836,146.926 270.169,146.093 266.5,145C 268.438,138.452 269.105,131.618 268.5,124.5C 271.833,124.5 275.167,124.5 278.5,124.5C 278.312,122.897 278.812,121.563 280,120.5C 281.617,121.536 281.784,122.703 280.5,124C 281.776,126.724 282.442,129.724 282.5,133C 282.439,136.373 282.106,139.707 281.5,143C 283.446,153.079 283.946,163.245 283,173.5C 281.989,174.337 280.822,174.67 279.5,174.5C 280.368,178.808 280.534,183.141 280,187.5C 276.776,186.214 275.61,184.047 276.5,181C 275.207,180.51 273.873,180.343 272.5,180.5 Z"/></g>
<g><path style="opacity:1" fill="#7e5414" d="M 370.5,105.5 C 373.839,112.194 376.672,119.194 379,126.5C 385.088,151.546 384.921,176.546 378.5,201.5C 376.13,209.277 372.797,216.61 368.5,223.5C 370.293,217.993 371.626,212.326 372.5,206.5C 371.057,203.002 371.224,199.669 373,196.5C 372.85,175.104 373.683,153.937 375.5,133C 375,132.5 374.5,132 374,131.5C 373.696,126.898 372.862,122.398 371.5,118C 371.96,116.699 372.294,115.366 372.5,114C 371.014,111.411 370.347,108.577 370.5,105.5 Z"/></g>
<g><path style="opacity:1" fill="#242010" d="M 223.5,123.5 C 222.404,132.636 223.071,141.636 225.5,150.5C 223.871,148.142 222.705,145.476 222,142.5C 219.692,135.81 220.192,129.476 223.5,123.5 Z"/></g>
<g><path style="opacity:1" fill="#eadc83" d="M 240.5,118.5 C 239.37,120.315 238.704,122.315 238.5,124.5C 237.178,124.33 236.011,124.663 235,125.5C 234.333,127.5 234.333,129.5 235,131.5C 235.333,131.167 235.667,130.833 236,130.5C 237.037,133.671 236.204,136.171 233.5,138C 234.09,140.257 235.423,141.924 237.5,143C 237.404,145.237 237.404,147.404 237.5,149.5C 230.105,140.629 229.605,131.296 236,121.5C 237.271,120.117 238.771,119.117 240.5,118.5 Z"/></g>
<g><path style="opacity:1" fill="#7c4e0d" d="M 104.5,107.5 C 106.207,108.873 107.54,110.539 108.5,112.5C 110.167,119.192 109.834,125.692 107.5,132C 108.93,133.889 109.597,136.055 109.5,138.5C 107.914,141.752 106.914,144.919 106.5,148C 107.061,161.54 108.061,175.04 109.5,188.5C 108.791,189.404 107.791,189.737 106.5,189.5C 108.812,198.659 110.146,207.993 110.5,217.5C 108.774,217.185 107.107,217.019 105.5,217C 107.002,220.005 108.002,223.171 108.5,226.5C 100.731,211.175 96.3977,194.842 95.5,177.5C 95.2398,162.45 95.9065,147.45 97.5,132.5C 98.9503,123.912 101.284,115.579 104.5,107.5 Z"/></g>
<g><path style="opacity:0.976" fill="#7a5a2c" d="M 97.5,132.5 C 95.9065,147.45 95.2398,162.45 95.5,177.5C 94.3412,167.008 94.1745,156.341 95,145.5C 95.4288,140.953 96.2621,136.619 97.5,132.5 Z"/></g>
<g><path style="opacity:1" fill="#554a20" d="M 264.5,148.5 C 268.634,147.515 272.968,147.182 277.5,147.5C 277.672,148.492 277.338,149.158 276.5,149.5C 272.702,148.517 268.702,148.183 264.5,148.5 Z"/></g>
<g><path style="opacity:1" fill="#171714" d="M 247.5,105.5 C 253.8,104.949 259.8,105.949 265.5,108.5C 265.842,109.338 266.508,109.672 267.5,109.5C 271.38,113.215 274.713,117.381 277.5,122C 273.514,122.499 269.514,122.666 265.5,122.5C 260.001,115.934 253.001,113.768 244.5,116C 242.68,116.2 241.347,117.034 240.5,118.5C 238.771,119.117 237.271,120.117 236,121.5C 229.605,131.296 230.105,140.629 237.5,149.5C 246.746,157.465 255.746,157.131 264.5,148.5C 268.702,148.183 272.702,148.517 276.5,149.5C 275.139,151.85 273.806,154.184 272.5,156.5C 266.585,161.123 259.919,164.123 252.5,165.5C 246.044,165.387 240.044,163.72 234.5,160.5C 233.205,159.512 231.872,158.512 230.5,157.5C 228.445,155.445 226.779,153.112 225.5,150.5C 223.071,141.636 222.404,132.636 223.5,123.5C 223.893,121.716 224.559,120.05 225.5,118.5C 227.471,116.192 229.471,113.858 231.5,111.5C 236.185,107.827 241.518,105.827 247.5,105.5 Z"/></g>
<g><path style="opacity:1" fill="#decc6b" d="M 230.5,157.5 C 231.872,158.512 233.205,159.512 234.5,160.5C 232.833,160.5 231.167,160.5 229.5,160.5C 228.863,164.013 228.863,167.68 229.5,171.5C 229.357,174.113 228.69,176.447 227.5,178.5C 224.904,177.735 222.237,177.401 219.5,177.5C 220.062,170.174 220.728,162.841 221.5,155.5C 223.167,158.167 224.833,158.167 226.5,155.5C 227.622,156.63 228.956,157.297 230.5,157.5 Z"/></g>
<g><path style="opacity:1" fill="#705122" d="M 117.5,139.5 C 116.189,155.165 116.189,170.832 117.5,186.5C 115.791,179.074 114.791,171.408 114.5,163.5C 114.793,155.261 115.793,147.261 117.5,139.5 Z"/></g>
<g><path style="opacity:0.999" fill="#794b0d" d="M 390.5,99.5 C 390.167,101.5 389.833,103.5 389.5,105.5C 390.675,105.281 391.675,105.614 392.5,106.5C 392.815,108.483 393.815,109.816 395.5,110.5C 396.664,114.659 397.997,118.659 399.5,122.5C 399.925,127.077 400.925,131.41 402.5,135.5C 403.833,153.833 403.833,172.167 402.5,190.5C 401.213,194.313 400.213,198.313 399.5,202.5C 399.5,202.833 399.5,203.167 399.5,203.5C 398.076,205.515 397.41,207.848 397.5,210.5C 397.405,212.786 396.738,214.786 395.5,216.5C 394.069,217.78 393.402,219.447 393.5,221.5C 392.326,222.514 391.66,223.847 391.5,225.5C 391.737,226.791 391.404,227.791 390.5,228.5C 389.11,229.899 388.11,231.566 387.5,233.5C 386.761,233.369 386.094,233.536 385.5,234C 384.624,235.586 383.624,237.086 382.5,238.5C 381.167,231.5 381.167,224.5 382.5,217.5C 384.349,215.811 385.349,213.644 385.5,211C 384.309,206.501 384.309,202.001 385.5,197.5C 388.811,181.675 390.144,165.675 389.5,149.5C 389.064,132.931 388.397,116.431 387.5,100C 388.448,99.5172 389.448,99.3505 390.5,99.5 Z"/></g>
<g><path style="opacity:1" fill="#131618" d="M 112.5,138.5 C 113.633,140.055 114.299,141.889 114.5,144C 113.167,155.667 113.167,167.333 114.5,179C 114,181.5 113.5,184 113,186.5C 111.872,180.103 111.372,173.603 111.5,167C 111.71,157.492 112.043,147.992 112.5,138.5 Z"/></g>
<g><path style="opacity:1" fill="#1b1605" d="M 266.5,179.5 C 268.735,179.205 270.735,179.539 272.5,180.5C 272.5,180.833 272.5,181.167 272.5,181.5C 270.958,180.699 269.292,180.366 267.5,180.5C 267.334,187.508 267.5,194.508 268,201.5C 268.333,201.833 268.667,202.167 269,202.5C 269.174,197.316 269.674,192.316 270.5,187.5C 270.5,193.167 270.5,198.833 270.5,204.5C 269.167,204.5 267.833,204.5 266.5,204.5C 266.5,196.167 266.5,187.833 266.5,179.5 Z"/></g>
<g><path style="opacity:1" fill="#ae9451" d="M 285.5,177.5 C 286.822,177.33 287.989,177.663 289,178.5C 289.333,180.833 289.667,183.167 290,185.5C 290.689,181.708 292.856,179.708 296.5,179.5C 298.142,177.919 300.142,177.253 302.5,177.5C 304.415,177.216 306.081,177.549 307.5,178.5C 294.88,178.782 289.547,185.115 291.5,197.5C 290.113,195.123 289.279,192.457 289,189.5C 288.501,194.823 288.334,200.156 288.5,205.5C 287.5,205.5 286.5,205.5 285.5,205.5C 283.901,205.768 282.568,205.434 281.5,204.5C 283.5,204.5 285.5,204.5 287.5,204.5C 287.5,196.167 287.5,187.833 287.5,179.5C 285.833,179.5 284.167,179.5 282.5,179.5C 282.666,185.509 282.499,191.509 282,197.5C 281.153,195.807 280.32,194.14 279.5,192.5C 281.28,188.273 282.114,183.606 282,178.5C 283.011,177.663 284.178,177.33 285.5,177.5 Z"/></g>
<g><path style="opacity:1" fill="#6b562f" d="M 341.5,183.5 C 343.167,183.5 344.833,183.5 346.5,183.5C 346.5,190.5 346.5,197.5 346.5,204.5C 347.833,204.5 349.167,204.5 350.5,204.5C 350.175,197.313 350.509,190.313 351.5,183.5C 351.5,190.833 351.5,198.167 351.5,205.5C 349.833,205.5 348.167,205.5 346.5,205.5C 345.509,198.687 345.175,191.687 345.5,184.5C 343.901,184.768 342.568,184.434 341.5,183.5 Z"/></g>
<g><path style="opacity:1" fill="#1f1d13" d="M 252.5,178.5 C 263.362,184.188 265.362,192.188 258.5,202.5C 253.332,205.859 247.999,206.192 242.5,203.5C 242.167,203.5 241.833,203.5 241.5,203.5C 232.689,193.716 234.023,185.549 245.5,179C 247.81,178.503 250.143,178.337 252.5,178.5 Z"/></g>
<g><path style="opacity:1" fill="#bca85f" d="M 217.5,179.5 C 217.5,187.833 217.5,196.167 217.5,204.5C 220.167,204.5 222.833,204.5 225.5,204.5C 224.791,205.404 223.791,205.737 222.5,205.5C 218.833,205.5 215.167,205.5 211.5,205.5C 211.338,209.713 212.005,213.713 213.5,217.5C 213.415,219.333 212.748,220.666 211.5,221.5C 210.167,221.5 208.833,221.5 207.5,221.5C 207.205,219.265 207.539,217.265 208.5,215.5C 208.5,211.833 208.5,208.167 208.5,204.5C 210.199,204.66 211.866,204.494 213.5,204C 211.5,201.333 209.5,198.667 207.5,196C 213.648,192.429 214.981,187.596 211.5,181.5C 213.124,181.36 214.29,182.027 215,183.5C 215.122,181.563 215.955,180.23 217.5,179.5 Z"/></g>
<g><path style="opacity:1" fill="#97742c" d="M 163.5,180.5 C 166.851,181.184 168.851,183.184 169.5,186.5C 172.417,186.635 175.084,185.968 177.5,184.5C 174.841,190.804 172.174,197.138 169.5,203.5C 171.045,204.452 172.712,204.785 174.5,204.5C 172.735,205.461 170.735,205.795 168.5,205.5C 168.5,204.167 168.5,202.833 168.5,201.5C 167.5,201.5 166.5,201.5 165.5,201.5C 166.141,200.518 166.807,199.518 167.5,198.5C 166.667,198.167 165.833,197.833 165,197.5C 162.222,199.05 159.222,200.05 156,200.5C 148.018,198.815 145.684,194.149 149,186.5C 151.995,183.735 155.495,182.902 159.5,184C 161.849,186.37 164.515,186.87 167.5,185.5C 166.143,183.814 164.81,182.148 163.5,180.5 Z"/></g>
<g><path style="opacity:1" fill="#4e4320" d="M 272.5,187.5 C 271.833,193.167 271.167,198.833 270.5,204.5C 270.5,198.833 270.5,193.167 270.5,187.5C 271.167,186.167 271.833,186.167 272.5,187.5 Z"/></g>
<g><path style="opacity:1" fill="#18150f" d="M 341.5,179.5 C 346.167,179.5 350.833,179.5 355.5,179.5C 355.5,180.833 355.5,182.167 355.5,183.5C 354.167,183.5 352.833,183.5 351.5,183.5C 350.509,190.313 350.175,197.313 350.5,204.5C 349.167,204.5 347.833,204.5 346.5,204.5C 346.5,197.5 346.5,190.5 346.5,183.5C 344.833,183.5 343.167,183.5 341.5,183.5C 341.5,182.167 341.5,180.833 341.5,179.5 Z"/></g>
<g><path style="opacity:1" fill="#825614" d="M 109.5,188.5 C 110.015,190.751 111.015,192.751 112.5,194.5C 113.68,198.217 115.013,201.884 116.5,205.5C 118.928,213.693 121.928,221.693 125.5,229.5C 125.321,231.954 125.987,234.121 127.5,236C 127.265,236.873 126.931,237.707 126.5,238.5C 129.663,239.324 131.33,241.324 131.5,244.5C 129.5,244.5 127.5,244.5 125.5,244.5C 125.425,248.129 125.425,251.796 125.5,255.5C 123.197,253.022 121.031,250.355 119,247.5C 114.941,240.715 111.441,233.715 108.5,226.5C 108.002,223.171 107.002,220.005 105.5,217C 107.107,217.019 108.774,217.185 110.5,217.5C 110.146,207.993 108.812,198.659 106.5,189.5C 107.791,189.737 108.791,189.404 109.5,188.5 Z"/></g>
<g><path style="opacity:1" fill="#e8d97c" d="M 245.5,183.5 C 253.955,182.461 258.122,186.128 258,194.5C 255.549,200.089 251.383,201.922 245.5,200C 238.899,194.504 238.899,189.004 245.5,183.5 Z"/></g>
<g><path style="opacity:1" fill="#947739" d="M 321.5,177.5 C 323.467,177.261 325.301,177.594 327,178.5C 327.5,185.492 327.666,192.492 327.5,199.5C 326.883,199.389 326.383,199.056 326,198.5C 325.5,192.175 325.334,185.842 325.5,179.5C 323.833,179.5 322.167,179.5 320.5,179.5C 320.334,185.509 320.501,191.509 321,197.5C 321.583,201.572 323.75,204.239 327.5,205.5C 325.5,205.167 323.5,204.833 321.5,204.5C 320.367,201.262 319.533,197.929 319,194.5C 316.425,203.051 310.591,207.051 301.5,206.5C 299.545,206.201 298.211,205.201 297.5,203.5C 311.379,207.3 317.879,201.966 317,187.5C 316.033,184.379 314.2,182.046 311.5,180.5C 312.978,180.238 314.311,180.571 315.5,181.5C 316.942,184.05 318.108,186.716 319,189.5C 319.333,185.833 319.667,182.167 320,178.5C 320.383,177.944 320.883,177.611 321.5,177.5 Z"/></g>
<g><path style="opacity:1" fill="#18170f" d="M 217.5,179.5 C 221.637,179.146 225.637,179.646 229.5,181C 231.919,182.509 232.919,184.675 232.5,187.5C 229.731,189.663 229.898,191.663 233,193.5C 233.497,195.81 233.663,198.143 233.5,200.5C 232.038,201.458 230.705,202.624 229.5,204C 228.207,204.49 226.873,204.657 225.5,204.5C 222.833,204.5 220.167,204.5 217.5,204.5C 217.5,196.167 217.5,187.833 217.5,179.5 Z"/></g>
<g><path style="opacity:1" fill="#d1c477" d="M 226.5,184.5 C 227.833,185.833 227.833,187.167 226.5,188.5C 225.167,188.5 223.833,188.5 222.5,188.5C 222.5,187.167 222.5,185.833 222.5,184.5C 223.833,184.5 225.167,184.5 226.5,184.5 Z"/></g>
<g><path style="opacity:1" fill="#8f8553" d="M 226.5,184.5 C 225.167,184.5 223.833,184.5 222.5,184.5C 222.5,185.833 222.5,187.167 222.5,188.5C 223.833,188.5 225.167,188.5 226.5,188.5C 225.081,189.451 223.415,189.784 221.5,189.5C 221.5,187.5 221.5,185.5 221.5,183.5C 223.415,183.216 225.081,183.549 226.5,184.5 Z"/></g>
<g><path style="opacity:1" fill="#191811" d="M 281.5,204.5 C 279.988,200.799 277.988,197.466 275.5,194.5C 275.672,193.508 275.338,192.842 274.5,192.5C 273.833,190.833 273.167,189.167 272.5,187.5C 271.833,186.167 271.167,186.167 270.5,187.5C 269.674,192.316 269.174,197.316 269,202.5C 268.667,202.167 268.333,201.833 268,201.5C 267.5,194.508 267.334,187.508 267.5,180.5C 269.292,180.366 270.958,180.699 272.5,181.5C 275.069,184.961 277.403,188.628 279.5,192.5C 280.32,194.14 281.153,195.807 282,197.5C 282.499,191.509 282.666,185.509 282.5,179.5C 284.167,179.5 285.833,179.5 287.5,179.5C 287.5,187.833 287.5,196.167 287.5,204.5C 285.5,204.5 283.5,204.5 281.5,204.5 Z"/></g>
<g><path style="opacity:1" fill="#1c1810" d="M 179.5,179.5 C 181.144,179.286 182.644,179.62 184,180.5C 187.167,188.167 190.333,195.833 193.5,203.5C 191.955,204.452 190.288,204.785 188.5,204.5C 188.623,199.623 186.29,197.623 181.5,198.5C 176.71,197.623 174.377,199.623 174.5,204.5C 172.712,204.785 171.045,204.452 169.5,203.5C 172.174,197.138 174.841,190.804 177.5,184.5C 178.167,182.833 178.833,181.167 179.5,179.5 Z"/></g>
<g><path style="opacity:1" fill="#947e40" d="M 180.5,186.5 C 182.363,187.967 183.696,189.967 184.5,192.5C 182.955,193.452 181.288,193.785 179.5,193.5C 179.674,191.139 180.007,188.806 180.5,186.5 Z"/></g>
<g><path style="opacity:1" fill="#1b180f" d="M 211.5,181.5 C 214.981,187.596 213.648,192.429 207.5,196C 209.5,198.667 211.5,201.333 213.5,204C 211.866,204.494 210.199,204.66 208.5,204.5C 208.167,204.5 207.833,204.5 207.5,204.5C 206.66,202.147 205.326,200.147 203.5,198.5C 203.013,197.527 202.513,196.527 202,195.5C 201.502,198.482 201.335,201.482 201.5,204.5C 199.833,204.5 198.167,204.5 196.5,204.5C 196.5,196.167 196.5,187.833 196.5,179.5C 200.846,179.334 205.179,179.501 209.5,180C 210.044,180.717 210.711,181.217 211.5,181.5 Z"/></g>
<g><path style="opacity:1" fill="#b39c53" d="M 201.5,183.5 C 205.271,182.774 207.937,184.107 209.5,187.5C 208.112,191.094 205.445,192.427 201.5,191.5C 201.5,188.833 201.5,186.167 201.5,183.5 Z"/></g>
<g><path style="opacity:0.009" fill="#faf6eb" d="M 402.5,190.5 C 402.33,191.822 402.663,192.989 403.5,194C 402.819,197.242 401.486,200.075 399.5,202.5C 400.213,198.313 401.213,194.313 402.5,190.5 Z"/></g>
<g><path style="opacity:1" fill="#a09864" d="M 227.5,194.5 C 225.833,194.5 224.167,194.5 222.5,194.5C 222.5,196.167 222.5,197.833 222.5,199.5C 224.167,199.5 225.833,199.5 227.5,199.5C 225.735,200.461 223.735,200.795 221.5,200.5C 221.5,198.167 221.5,195.833 221.5,193.5C 223.735,193.205 225.735,193.539 227.5,194.5 Z"/></g>
<g><path style="opacity:1" fill="#d4c573" d="M 227.5,194.5 C 230.167,196.167 230.167,197.833 227.5,199.5C 225.833,199.5 224.167,199.5 222.5,199.5C 222.5,197.833 222.5,196.167 222.5,194.5C 224.167,194.5 225.833,194.5 227.5,194.5 Z"/></g>
<g><path style="opacity:1" fill="#1c180f" d="M 152.5,178.5 C 156.367,178.242 160.034,178.908 163.5,180.5C 164.81,182.148 166.143,183.814 167.5,185.5C 164.515,186.87 161.849,186.37 159.5,184C 155.495,182.902 151.995,183.735 149,186.5C 145.684,194.149 148.018,198.815 156,200.5C 159.222,200.05 162.222,199.05 165,197.5C 165.833,197.833 166.667,198.167 167.5,198.5C 166.807,199.518 166.141,200.518 165.5,201.5C 159.167,206.833 152.833,206.833 146.5,201.5C 140.297,191.767 142.297,184.1 152.5,178.5 Z"/></g>
<g><path style="opacity:1" fill="#a68d48" d="M 197.5,177.5 C 200.167,177.5 202.833,177.5 205.5,177.5C 206.919,178.451 208.585,178.784 210.5,178.5C 211.11,179.391 211.443,180.391 211.5,181.5C 210.711,181.217 210.044,180.717 209.5,180C 205.179,179.501 200.846,179.334 196.5,179.5C 196.5,187.833 196.5,196.167 196.5,204.5C 198.167,204.5 199.833,204.5 201.5,204.5C 201.335,201.482 201.502,198.482 202,195.5C 202.513,196.527 203.013,197.527 203.5,198.5C 202.532,200.607 202.198,202.941 202.5,205.5C 197.637,205.819 192.97,205.486 188.5,204.5C 190.288,204.785 191.955,204.452 193.5,203.5C 190.333,195.833 187.167,188.167 184,180.5C 182.644,179.62 181.144,179.286 179.5,179.5C 179.5,179.167 179.5,178.833 179.5,178.5C 181.5,178.5 183.5,178.5 185.5,178.5C 185.733,181.542 186.733,184.208 188.5,186.5C 189.888,191.094 191.721,195.427 194,199.5C 194.817,196.44 194.317,193.606 192.5,191C 194.117,187.026 194.95,182.859 195,178.5C 195.671,177.748 196.504,177.414 197.5,177.5 Z"/></g>
<g><path style="opacity:1" fill="#1f1a0f" d="M 327.5,199.5 C 328.097,200.139 328.93,200.472 330,200.5C 331.699,200.613 332.866,199.947 333.5,198.5C 334.49,192.355 334.823,186.022 334.5,179.5C 336.167,179.5 337.833,179.5 339.5,179.5C 339.666,185.842 339.5,192.175 339,198.5C 338.009,201.989 335.842,204.323 332.5,205.5C 330.833,205.5 329.167,205.5 327.5,205.5C 323.75,204.239 321.583,201.572 321,197.5C 320.501,191.509 320.334,185.509 320.5,179.5C 322.167,179.5 323.833,179.5 325.5,179.5C 325.334,185.842 325.5,192.175 326,198.5C 326.383,199.056 326.883,199.389 327.5,199.5 Z"/></g>
<g><path style="opacity:1" fill="#1b1810" d="M 307.5,178.5 C 307.833,178.5 308.167,178.5 308.5,178.5C 308.973,179.906 309.973,180.573 311.5,180.5C 314.2,182.046 316.033,184.379 317,187.5C 317.879,201.966 311.379,207.3 297.5,203.5C 295.139,201.806 293.139,199.806 291.5,197.5C 289.547,185.115 294.88,178.782 307.5,178.5 Z"/></g>
<g><path style="opacity:1" fill="#a78639" d="M 300.5,183.5 C 308.955,182.461 313.122,186.128 313,194.5C 310.549,200.089 306.383,201.922 300.5,200C 293.899,194.504 293.899,189.004 300.5,183.5 Z"/></g>
<g><path style="opacity:1" fill="#d7c268" d="M 272.5,156.5 C 273.244,159.95 271.91,161.616 268.5,161.5C 268.972,167.717 268.305,173.717 266.5,179.5C 266.5,187.833 266.5,196.167 266.5,204.5C 267.833,204.5 269.167,204.5 270.5,204.5C 271.167,198.833 271.833,193.167 272.5,187.5C 273.167,189.167 273.833,190.833 274.5,192.5C 272.57,196.373 271.903,200.706 272.5,205.5C 271.167,205.5 269.833,205.5 268.5,205.5C 268.252,234.592 268.585,263.759 269.5,293C 268.429,293.852 267.429,294.685 266.5,295.5C 256.866,297.361 247.2,297.695 237.5,296.5C 243.026,296.821 248.36,296.488 253.5,295.5C 256.167,295.5 258.833,295.5 261.5,295.5C 261.667,270.164 261.5,244.831 261,219.5C 259.959,221.311 258.793,221.645 257.5,220.5C 258.309,219.531 259.309,218.698 260.5,218C 257.833,217.333 257.833,216.667 260.5,216C 259.552,215.517 258.552,215.351 257.5,215.5C 258.568,214.566 259.901,214.232 261.5,214.5C 261.665,210.818 261.499,207.152 261,203.5C 260.329,202.748 259.496,202.414 258.5,202.5C 265.362,192.188 263.362,184.188 252.5,178.5C 249.873,175.071 248.873,171.071 249.5,166.5C 250.791,166.737 251.791,166.404 252.5,165.5C 259.919,164.123 266.585,161.123 272.5,156.5 Z"/></g>
<g><path style="opacity:1" fill="#191711" d="M 121.5,204.5 C 125.269,216.038 130.602,226.704 137.5,236.5C 139.763,241.365 142.763,245.698 146.5,249.5C 154.285,258.957 163.285,266.957 173.5,273.5C 174.899,274.89 176.566,275.89 178.5,276.5C 180.336,278.588 182.669,279.921 185.5,280.5C 189.204,283.352 193.204,285.685 197.5,287.5C 200.142,290.317 203.475,291.817 207.5,292C 206.833,292.333 206.167,292.667 205.5,293C 209.114,293.945 212.781,294.612 216.5,295C 215.128,295.402 213.795,295.902 212.5,296.5C 210.253,295.626 207.92,295.292 205.5,295.5C 203.784,295.371 202.117,295.038 200.5,294.5C 193.235,291.204 185.902,287.871 178.5,284.5C 171.685,279.257 164.685,274.257 157.5,269.5C 144.903,257.585 134.236,244.252 125.5,229.5C 121.928,221.693 118.928,213.693 116.5,205.5C 115.82,200.779 114.82,196.113 113.5,191.5C 113.833,190.833 114.167,190.167 114.5,189.5C 116.585,193.838 118.251,198.338 119.5,203C 119.836,204.03 120.503,204.53 121.5,204.5 Z"/></g>
<g><path style="opacity:1" fill="#d1ba5d" d="M 222.5,205.5 C 222.065,208.838 222.732,211.838 224.5,214.5C 217.325,214.193 215.992,216.526 220.5,221.5C 220.333,245.169 220.5,268.836 221,292.5C 223.381,293.435 225.881,293.768 228.5,293.5C 228.5,294.167 228.5,294.833 228.5,295.5C 223.4,294.975 218.4,293.975 213.5,292.5C 213.5,291.5 213.5,290.5 213.5,289.5C 212.4,288.442 211.066,287.608 209.5,287C 211.483,265.398 212.149,243.565 211.5,221.5C 212.748,220.666 213.415,219.333 213.5,217.5C 212.005,213.713 211.338,209.713 211.5,205.5C 215.167,205.5 218.833,205.5 222.5,205.5 Z"/></g>
<g><path style="opacity:0.016" fill="#f8f4e9" d="M 399.5,203.5 C 399.829,206.228 399.163,208.562 397.5,210.5C 397.41,207.848 398.076,205.515 399.5,203.5 Z"/></g>
<g><path style="opacity:1" fill="#312b08" d="M 232.5,215.5 C 233.791,215.263 234.791,215.596 235.5,216.5C 234.71,217.609 234.21,218.942 234,220.5C 233.648,218.753 233.148,217.086 232.5,215.5 Z"/></g>
<g><path style="opacity:1" fill="#4e431a" d="M 249.5,217.5 C 247.171,215.998 245.837,216.664 245.5,219.5C 245.167,219.5 244.833,219.5 244.5,219.5C 244.5,219.167 244.5,218.833 244.5,218.5C 244.484,216.516 245.484,215.516 247.5,215.5C 248.713,215.747 249.38,216.414 249.5,217.5 Z"/></g>
<g><path style="opacity:1" fill="#9a742a" d="M 146.5,201.5 C 152.833,206.833 159.167,206.833 165.5,201.5C 162.976,206.267 162.976,210.933 165.5,215.5C 167.144,215.286 168.644,215.62 170,216.5C 171.516,213.994 173.682,213.16 176.5,214C 178.715,216.242 179.048,218.742 177.5,221.5C 173.995,222.124 171.162,221.124 169,218.5C 167.413,219.67 165.747,220.67 164,221.5C 163.185,234.879 163.352,248.212 164.5,261.5C 162.539,262.848 162.372,264.181 164,265.5C 164.667,264.833 165.333,264.167 166,263.5C 167.8,267.466 170.3,270.8 173.5,273.5C 163.285,266.957 154.285,258.957 146.5,249.5C 146.48,247.857 147.147,246.524 148.5,245.5C 147.624,244.749 146.624,244.249 145.5,244C 146.944,242.874 147.61,241.374 147.5,239.5C 146.565,228.191 146.232,216.858 146.5,205.5C 145.5,205.5 144.5,205.5 143.5,205.5C 143.579,204.07 143.246,202.736 142.5,201.5C 143.7,200.708 145.033,200.708 146.5,201.5 Z"/></g>
<g><path style="opacity:1" fill="#332209" d="M 165.5,215.5 C 163.451,221.702 162.451,221.702 162.5,215.5C 163.5,215.5 164.5,215.5 165.5,215.5 Z"/></g>
<g><path style="opacity:1" fill="#594722" d="M 201.5,216.5 C 201.833,219.5 200.5,220.833 197.5,220.5C 197.5,218.833 197.5,217.167 197.5,215.5C 198.959,215.433 200.292,215.766 201.5,216.5 Z"/></g>
<g><path style="opacity:1" fill="#aa9854" d="M 224.5,214.5 C 225.303,215.423 225.47,216.423 225,217.5C 223.989,216.663 222.822,216.33 221.5,216.5C 221.5,217.5 221.5,218.5 221.5,219.5C 226.479,220.246 226.146,220.912 220.5,221.5C 215.992,216.526 217.325,214.193 224.5,214.5 Z"/></g>
<g><path style="opacity:1" fill="#553c1d" d="M 320.5,215.5 C 322.167,215.5 323.833,215.5 325.5,215.5C 325.5,217.167 325.5,218.833 325.5,220.5C 323.833,220.5 322.167,220.5 320.5,220.5C 320.5,219.167 320.5,217.833 320.5,216.5C 320.5,216.167 320.5,215.833 320.5,215.5 Z"/></g>
<g><path style="opacity:1" fill="#3f2c15" d="M 173.5,215.5 C 174.5,215.5 175.5,215.5 176.5,215.5C 174.614,221.764 173.614,221.764 173.5,215.5 Z"/></g>
<g><path style="opacity:1" fill="#312809" d="M 257.5,215.5 C 258.552,215.351 259.552,215.517 260.5,216C 257.833,216.667 257.833,217.333 260.5,218C 259.309,218.698 258.309,219.531 257.5,220.5C 257.5,218.833 257.5,217.167 257.5,215.5 Z"/></g>
<g><path style="opacity:1" fill="#332006" d="M 333.5,215.5 C 334.239,215.369 334.906,215.536 335.5,216C 335.5,217.333 335.5,218.667 335.5,220C 334.906,220.464 334.239,220.631 333.5,220.5C 333.5,218.833 333.5,217.167 333.5,215.5 Z"/></g>
<g><path style="opacity:1" fill="#a88434" d="M 188.5,204.5 C 187.213,203.232 186.213,203.565 185.5,205.5C 184.52,208.086 184.187,210.753 184.5,213.5C 186.5,213.5 188.5,213.5 190.5,213.5C 190.5,216.167 190.5,218.833 190.5,221.5C 189.5,221.5 188.5,221.5 187.5,221.5C 189.432,220.024 189.765,218.357 188.5,216.5C 183.354,215.198 182.354,216.865 185.5,221.5C 184.827,239.902 184.161,258.402 183.5,277C 184.973,277.71 185.64,278.876 185.5,280.5C 182.669,279.921 180.336,278.588 178.5,276.5C 178.056,274.887 177.056,273.72 175.5,273C 182.786,272.517 183.119,271.183 176.5,269C 177.491,253.244 177.825,237.411 177.5,221.5C 179.048,218.742 178.715,216.242 176.5,214C 173.682,213.16 171.516,213.994 170,216.5C 168.644,215.62 167.144,215.286 165.5,215.5C 162.976,210.933 162.976,206.267 165.5,201.5C 166.5,201.5 167.5,201.5 168.5,201.5C 168.5,202.833 168.5,204.167 168.5,205.5C 170.735,205.795 172.735,205.461 174.5,204.5C 174.377,199.623 176.71,197.623 181.5,198.5C 186.29,197.623 188.623,199.623 188.5,204.5 Z"/></g>
<g><path style="opacity:1" fill="#544518" d="M 208.5,215.5 C 210.045,216.23 210.878,217.563 211,219.5C 212.008,214.459 212.508,214.792 212.5,220.5C 209.09,220.616 207.756,218.95 208.5,215.5 Z"/></g>
<g><path style="opacity:1" fill="#ded98f" d="M 249.5,217.5 C 248.713,219.104 247.38,219.771 245.5,219.5C 245.837,216.664 247.171,215.998 249.5,217.5 Z"/></g>
<g><path style="opacity:1" fill="#e2cf6e" d="M 258.5,202.5 C 259.496,202.414 260.329,202.748 261,203.5C 261.499,207.152 261.665,210.818 261.5,214.5C 259.901,214.232 258.568,214.566 257.5,215.5C 257.5,217.167 257.5,218.833 257.5,220.5C 258.793,221.645 259.959,221.311 261,219.5C 261.5,244.831 261.667,270.164 261.5,295.5C 258.833,295.5 256.167,295.5 253.5,295.5C 252.676,270.906 252.176,246.239 252,221.5C 251.329,220.748 250.496,220.414 249.5,220.5C 250.625,219.348 250.625,218.348 249.5,217.5C 249.38,216.414 248.713,215.747 247.5,215.5C 245.484,215.516 244.484,216.516 244.5,218.5C 243.209,217.458 243.209,216.292 244.5,215C 246.167,214.667 247.833,214.333 249.5,214C 247.38,212.477 247.047,210.644 248.5,208.5C 245.987,207.272 243.987,205.605 242.5,203.5C 247.999,206.192 253.332,205.859 258.5,202.5 Z"/></g>
<g><path style="opacity:1" fill="#a68132" d="M 321.5,204.5 C 320.425,205.713 319.759,207.213 319.5,209C 319.788,211.187 320.122,213.354 320.5,215.5C 320.5,215.833 320.5,216.167 320.5,216.5C 320.05,233.756 319.383,251.256 318.5,269C 323.935,272.661 323.269,274.828 316.5,275.5C 316.5,276.5 316.5,277.5 316.5,278.5C 309.306,283.761 301.306,287.428 292.5,289.5C 292.5,289.167 292.5,288.833 292.5,288.5C 296.379,286.729 300.379,285.229 304.5,284C 306.406,282.144 307.24,279.977 307,277.5C 305.989,278.337 304.822,278.67 303.5,278.5C 303.173,256.591 303.506,234.758 304.5,213C 301.846,210.928 302.18,209.261 305.5,208C 303.942,207.79 302.609,207.29 301.5,206.5C 310.591,207.051 316.425,203.051 319,194.5C 319.533,197.929 320.367,201.262 321.5,204.5 Z"/></g>
<g><path style="opacity:1" fill="#462d13" d="M 309.5,215.5 C 311.908,216.315 312.741,217.981 312,220.5C 311,219.167 310,219.167 309,220.5C 308.616,218.803 308.782,217.137 309.5,215.5 Z"/></g>
<g><path style="opacity:1" fill="#6b5e2f" d="M 249.5,217.5 C 250.625,218.348 250.625,219.348 249.5,220.5C 247.737,221.954 246.403,221.62 245.5,219.5C 247.38,219.771 248.713,219.104 249.5,217.5 Z"/></g>
<g><path style="opacity:0.094" fill="#f3e9df" d="M 395.5,216.5 C 395.598,218.553 394.931,220.22 393.5,221.5C 393.402,219.447 394.069,217.78 395.5,216.5 Z"/></g>
<g><path style="opacity:1" fill="#5b401d" d="M 188.5,216.5 C 189.765,218.357 189.432,220.024 187.5,221.5C 186.833,221.5 186.167,221.5 185.5,221.5C 182.354,216.865 183.354,215.198 188.5,216.5 Z"/></g>
<g><path style="opacity:1" fill="#9b884c" d="M 188.5,216.5 C 188.5,217.5 188.5,218.5 188.5,219.5C 187.5,219.5 186.5,219.5 185.5,219.5C 185.5,218.5 185.5,217.5 185.5,216.5C 186.5,216.5 187.5,216.5 188.5,216.5 Z"/></g>
<g><path style="opacity:1" fill="#b89842" d="M 291.5,197.5 C 292.989,226.409 293.655,255.409 293.5,284.5C 290.402,284.413 290.068,284.913 292.5,286C 291.226,286.977 291.226,287.811 292.5,288.5C 292.5,288.833 292.5,289.167 292.5,289.5C 289.495,291.277 286.162,292.277 282.5,292.5C 284.382,291.249 286.382,290.082 288.5,289C 287.853,287.391 287.02,285.891 286,284.5C 285.5,263.503 285.333,242.503 285.5,221.5C 284.209,221.737 283.209,221.404 282.5,220.5C 281.378,218.712 281.211,216.712 282,214.5C 283.011,213.663 284.178,213.33 285.5,213.5C 285.5,210.833 285.5,208.167 285.5,205.5C 286.5,205.5 287.5,205.5 288.5,205.5C 288.334,200.156 288.501,194.823 289,189.5C 289.279,192.457 290.113,195.123 291.5,197.5 Z"/></g>
<g><path style="opacity:1" fill="#37270c" d="M 282.5,220.5 C 282.215,218.712 282.548,217.045 283.5,215.5C 283.99,216.884 284.324,218.384 284.5,220C 283.906,220.464 283.239,220.631 282.5,220.5 Z"/></g>
<g><path style="opacity:1" fill="#a47f2f" d="M 177.5,221.5 C 177.825,237.411 177.491,253.244 176.5,269C 183.119,271.183 182.786,272.517 175.5,273C 177.056,273.72 178.056,274.887 178.5,276.5C 176.566,275.89 174.899,274.89 173.5,273.5C 170.3,270.8 167.8,267.466 166,263.5C 165.333,264.167 164.667,264.833 164,265.5C 162.372,264.181 162.539,262.848 164.5,261.5C 163.352,248.212 163.185,234.879 164,221.5C 165.747,220.67 167.413,219.67 169,218.5C 171.162,221.124 173.995,222.124 177.5,221.5 Z"/></g>
<g><path style="opacity:1" fill="#b18e3b" d="M 188.5,204.5 C 192.97,205.486 197.637,205.819 202.5,205.5C 202.815,209.371 202.482,213.038 201.5,216.5C 200.292,215.766 198.959,215.433 197.5,215.5C 197.5,217.167 197.5,218.833 197.5,220.5C 197.333,241.836 197.5,263.169 198,284.5C 199.992,285.328 201.492,286.661 202.5,288.5C 200.883,287.962 199.216,287.629 197.5,287.5C 193.204,285.685 189.204,283.352 185.5,280.5C 185.64,278.876 184.973,277.71 183.5,277C 184.161,258.402 184.827,239.902 185.5,221.5C 186.167,221.5 186.833,221.5 187.5,221.5C 188.5,221.5 189.5,221.5 190.5,221.5C 190.5,218.833 190.5,216.167 190.5,213.5C 188.5,213.5 186.5,213.5 184.5,213.5C 184.187,210.753 184.52,208.086 185.5,205.5C 186.213,203.565 187.213,203.232 188.5,204.5 Z"/></g>
<g><path style="opacity:1" fill="#bb9c46" d="M 203.5,198.5 C 205.326,200.147 206.66,202.147 207.5,204.5C 206.292,203.766 204.959,203.433 203.5,203.5C 203.7,207.835 203.7,212.002 203.5,216C 203.905,216.945 204.572,217.612 205.5,218C 204.643,218.689 203.977,219.522 203.5,220.5C 204.617,221.949 205.284,223.616 205.5,225.5C 204.504,246.244 204.171,266.911 204.5,287.5C 207.391,288.678 210.391,289.345 213.5,289.5C 213.5,290.5 213.5,291.5 213.5,292.5C 209.605,291.538 205.939,290.204 202.5,288.5C 201.492,286.661 199.992,285.328 198,284.5C 197.5,263.169 197.333,241.836 197.5,220.5C 200.5,220.833 201.833,219.5 201.5,216.5C 202.482,213.038 202.815,209.371 202.5,205.5C 202.198,202.941 202.532,200.607 203.5,198.5 Z"/></g>
<g><path style="opacity:1" fill="#efe07d" d="M 234.5,160.5 C 240.044,163.72 246.044,165.387 252.5,165.5C 251.791,166.404 250.791,166.737 249.5,166.5C 248.873,171.071 249.873,175.071 252.5,178.5C 250.143,178.337 247.81,178.503 245.5,179C 234.023,185.549 232.689,193.716 241.5,203.5C 240.5,203.5 239.5,203.5 238.5,203.5C 238.915,208.34 238.248,213.007 236.5,217.5C 236.919,218.672 237.585,219.672 238.5,220.5C 236.522,245.34 235.856,270.34 236.5,295.5C 239.167,295.5 241.833,295.5 244.5,295.5C 244.5,270.167 244.5,244.833 244.5,219.5C 244.833,219.5 245.167,219.5 245.5,219.5C 246.403,221.62 247.737,221.954 249.5,220.5C 250.496,220.414 251.329,220.748 252,221.5C 252.176,246.239 252.676,270.906 253.5,295.5C 248.36,296.488 243.026,296.821 237.5,296.5C 234.455,296.492 231.455,296.159 228.5,295.5C 228.5,294.833 228.5,294.167 228.5,293.5C 229.498,269.672 229.831,245.672 229.5,221.5C 231.5,221.5 233.5,221.5 235.5,221.5C 235.5,219.833 235.5,218.167 235.5,216.5C 234.791,215.596 233.791,215.263 232.5,215.5C 234.172,211.413 233.839,207.579 231.5,204C 232.973,203.29 233.64,202.124 233.5,200.5C 233.663,198.143 233.497,195.81 233,193.5C 229.898,191.663 229.731,189.663 232.5,187.5C 233.613,186.054 233.78,184.387 233,182.5C 232.125,179.785 230.292,178.452 227.5,178.5C 228.69,176.447 229.357,174.113 229.5,171.5C 228.863,167.68 228.863,164.013 229.5,160.5C 231.167,160.5 232.833,160.5 234.5,160.5 Z"/></g>
<g><path style="opacity:1" fill="#f8eb83" d="M 241.5,203.5 C 241.833,203.5 242.167,203.5 242.5,203.5C 243.987,205.605 245.987,207.272 248.5,208.5C 247.047,210.644 247.38,212.477 249.5,214C 247.833,214.333 246.167,214.667 244.5,215C 243.209,216.292 243.209,217.458 244.5,218.5C 244.5,218.833 244.5,219.167 244.5,219.5C 244.5,244.833 244.5,270.167 244.5,295.5C 241.833,295.5 239.167,295.5 236.5,295.5C 235.856,270.34 236.522,245.34 238.5,220.5C 237.585,219.672 236.919,218.672 236.5,217.5C 238.248,213.007 238.915,208.34 238.5,203.5C 239.5,203.5 240.5,203.5 241.5,203.5 Z"/></g>
<g><path style="opacity:1" fill="#cab156" d="M 274.5,192.5 C 275.338,192.842 275.672,193.508 275.5,194.5C 275.229,196.821 275.896,198.821 277.5,200.5C 274.832,201.515 274.166,203.182 275.5,205.5C 276.5,204.833 277.5,204.167 278.5,203.5C 279.5,233.493 279.833,263.493 279.5,293.5C 275.317,294.907 270.984,295.574 266.5,295.5C 267.429,294.685 268.429,293.852 269.5,293C 268.585,263.759 268.252,234.592 268.5,205.5C 269.833,205.5 271.167,205.5 272.5,205.5C 271.903,200.706 272.57,196.373 274.5,192.5 Z"/></g>
<g><path style="opacity:1" fill="#382909" d="M 272.5,218.5 C 273.268,217.737 273.768,216.737 274,215.5C 274.798,217.259 274.631,218.926 273.5,220.5C 272.702,220.043 272.369,219.376 272.5,218.5 Z"/></g>
<g><path style="opacity:1" fill="#4d3f23" d="M 272.5,218.5 C 271.778,218.918 271.278,219.584 271,220.5C 270.333,218.833 270.333,217.167 271,215.5C 272.039,216.244 272.539,217.244 272.5,218.5 Z"/></g>
<g><path style="opacity:1" fill="#bfa34c" d="M 275.5,194.5 C 277.988,197.466 279.988,200.799 281.5,204.5C 282.568,205.434 283.901,205.768 285.5,205.5C 285.5,208.167 285.5,210.833 285.5,213.5C 284.178,213.33 283.011,213.663 282,214.5C 281.211,216.712 281.378,218.712 282.5,220.5C 283.209,221.404 284.209,221.737 285.5,221.5C 285.333,242.503 285.5,263.503 286,284.5C 287.02,285.891 287.853,287.391 288.5,289C 286.382,290.082 284.382,291.249 282.5,292.5C 281.791,293.404 280.791,293.737 279.5,293.5C 279.833,263.493 279.5,233.493 278.5,203.5C 277.5,204.167 276.5,204.833 275.5,205.5C 274.166,203.182 274.832,201.515 277.5,200.5C 275.896,198.821 275.229,196.821 275.5,194.5 Z"/></g>
<g><path style="opacity:1" fill="#b08d39" d="M 291.5,197.5 C 293.139,199.806 295.139,201.806 297.5,203.5C 298.211,205.201 299.545,206.201 301.5,206.5C 302.609,207.29 303.942,207.79 305.5,208C 302.18,209.261 301.846,210.928 304.5,213C 303.506,234.758 303.173,256.591 303.5,278.5C 304.822,278.67 305.989,278.337 307,277.5C 307.24,279.977 306.406,282.144 304.5,284C 300.379,285.229 296.379,286.729 292.5,288.5C 291.226,287.811 291.226,286.977 292.5,286C 290.068,284.913 290.402,284.413 293.5,284.5C 293.655,255.409 292.989,226.409 291.5,197.5 Z"/></g>
<g><path style="opacity:1" fill="#3c2b10" d="M 292.5,215.5 C 293.222,215.918 293.722,216.584 294,217.5C 294.743,215.355 295.576,215.189 296.5,217C 294.128,221.595 292.795,221.095 292.5,215.5 Z"/></g>
<g><path style="opacity:1" fill="#9c7629" d="M 321.5,204.5 C 323.5,204.833 325.5,205.167 327.5,205.5C 329.167,205.5 330.833,205.5 332.5,205.5C 333.833,205.5 335.167,205.5 336.5,205.5C 336.5,207.833 336.5,210.167 336.5,212.5C 335.5,212.5 334.5,212.5 333.5,212.5C 333.5,213.5 333.5,214.5 333.5,215.5C 333.5,217.167 333.5,218.833 333.5,220.5C 335.581,221.087 337.581,221.087 339.5,220.5C 338.685,233.788 338.185,247.122 338,260.5C 337.209,261.745 336.709,263.078 336.5,264.5C 330.668,270.327 324.002,274.994 316.5,278.5C 316.5,277.5 316.5,276.5 316.5,275.5C 323.269,274.828 323.935,272.661 318.5,269C 319.383,251.256 320.05,233.756 320.5,216.5C 320.5,217.833 320.5,219.167 320.5,220.5C 322.167,220.5 323.833,220.5 325.5,220.5C 325.5,218.833 325.5,217.167 325.5,215.5C 323.833,215.5 322.167,215.5 320.5,215.5C 320.122,213.354 319.788,211.187 319.5,209C 319.759,207.213 320.425,205.713 321.5,204.5 Z"/></g>
<g><path style="opacity:0.004" fill="#f9f5e7" d="M 393.5,221.5 C 393.771,223.38 393.104,224.713 391.5,225.5C 391.66,223.847 392.326,222.514 393.5,221.5 Z"/></g>
<g><path style="opacity:1" fill="#c5aa4e" d="M 207.5,204.5 C 207.833,204.5 208.167,204.5 208.5,204.5C 208.5,208.167 208.5,211.833 208.5,215.5C 207.539,217.265 207.205,219.265 207.5,221.5C 208.833,221.5 210.167,221.5 211.5,221.5C 212.149,243.565 211.483,265.398 209.5,287C 211.066,287.608 212.4,288.442 213.5,289.5C 210.391,289.345 207.391,288.678 204.5,287.5C 204.171,266.911 204.504,246.244 205.5,225.5C 205.284,223.616 204.617,221.949 203.5,220.5C 203.977,219.522 204.643,218.689 205.5,218C 204.572,217.612 203.905,216.945 203.5,216C 203.7,212.002 203.7,207.835 203.5,203.5C 204.959,203.433 206.292,203.766 207.5,204.5 Z"/></g>
<g><path style="opacity:1" fill="#decc6b" d="M 233.5,200.5 C 233.64,202.124 232.973,203.29 231.5,204C 233.839,207.579 234.172,211.413 232.5,215.5C 233.148,217.086 233.648,218.753 234,220.5C 234.21,218.942 234.71,217.609 235.5,216.5C 235.5,218.167 235.5,219.833 235.5,221.5C 233.5,221.5 231.5,221.5 229.5,221.5C 229.831,245.672 229.498,269.672 228.5,293.5C 225.881,293.768 223.381,293.435 221,292.5C 220.5,268.836 220.333,245.169 220.5,221.5C 226.146,220.912 226.479,220.246 221.5,219.5C 221.5,218.5 221.5,217.5 221.5,216.5C 222.822,216.33 223.989,216.663 225,217.5C 225.47,216.423 225.303,215.423 224.5,214.5C 222.732,211.838 222.065,208.838 222.5,205.5C 223.791,205.737 224.791,205.404 225.5,204.5C 226.873,204.657 228.207,204.49 229.5,204C 230.705,202.624 232.038,201.458 233.5,200.5 Z"/></g>
<g><path style="opacity:0.018" fill="#f7f1e5" d="M 390.5,228.5 C 390.346,230.97 389.346,232.97 387.5,234.5C 387.5,234.167 387.5,233.833 387.5,233.5C 388.11,231.566 389.11,229.899 390.5,228.5 Z"/></g>
<g><path style="opacity:0.082" fill="#ede5d3" d="M 386.5,236.5 C 386.25,238.674 385.25,240.341 383.5,241.5C 383.75,239.326 384.75,237.659 386.5,236.5 Z"/></g>
<g><path style="opacity:1" fill="#825818" d="M 385.5,197.5 C 384.309,202.001 384.309,206.501 385.5,211C 385.349,213.644 384.349,215.811 382.5,217.5C 381.167,224.5 381.167,231.5 382.5,238.5C 383.624,237.086 384.624,235.586 385.5,234C 386.094,233.536 386.761,233.369 387.5,233.5C 387.5,233.833 387.5,234.167 387.5,234.5C 387.672,235.492 387.338,236.158 386.5,236.5C 384.75,237.659 383.75,239.326 383.5,241.5C 381.75,242.659 380.75,244.326 380.5,246.5C 377.117,250.553 374.117,254.886 371.5,259.5C 369.5,261.167 367.5,262.833 365.5,264.5C 364.871,262.535 364.204,260.535 363.5,258.5C 363.437,256.519 364.104,254.852 365.5,253.5C 364.652,251.591 364.318,249.591 364.5,247.5C 363.5,247.5 362.5,247.5 361.5,247.5C 370.598,234.637 377.598,220.637 382.5,205.5C 383.205,202.646 384.205,199.979 385.5,197.5 Z"/></g>
<g><path style="opacity:0.082" fill="#e9dcc1" d="M 383.5,241.5 C 383.25,243.674 382.25,245.341 380.5,246.5C 380.75,244.326 381.75,242.659 383.5,241.5 Z"/></g>
<g><path style="opacity:0.063" fill="#f2e8d3" d="M 380.5,246.5 C 378.662,251.665 375.662,255.999 371.5,259.5C 374.117,254.886 377.117,250.553 380.5,246.5 Z"/></g>
<g><path style="opacity:1" fill="#1b180f" d="M 378.5,201.5 C 378.154,204.885 377.488,208.218 376.5,211.5C 376.833,212.167 377.167,212.833 377.5,213.5C 378.4,210.284 380.067,207.618 382.5,205.5C 377.598,220.637 370.598,234.637 361.5,247.5C 353.721,256.067 345.721,264.401 337.5,272.5C 329.162,277.841 320.828,283.174 312.5,288.5C 309.088,289.075 306.088,290.408 303.5,292.5C 296.341,294.664 289.341,296.997 282.5,299.5C 277.814,300.037 273.147,300.704 268.5,301.5C 272.383,299.605 276.717,298.439 281.5,298C 279.371,296.897 277.037,296.397 274.5,296.5C 257.159,299.098 239.825,299.098 222.5,296.5C 221.167,296.833 219.833,297.167 218.5,297.5C 223.509,298.861 228.842,300.028 234.5,301C 244.494,301.5 254.494,301.666 264.5,301.5C 257.352,302.492 250.019,302.825 242.5,302.5C 235.421,302.553 228.421,301.887 221.5,300.5C 221.167,300.5 220.833,300.5 220.5,300.5C 215.36,299.297 210.36,297.631 205.5,295.5C 207.92,295.292 210.253,295.626 212.5,296.5C 213.795,295.902 215.128,295.402 216.5,295C 212.781,294.612 209.114,293.945 205.5,293C 206.167,292.667 206.833,292.333 207.5,292C 203.475,291.817 200.142,290.317 197.5,287.5C 199.216,287.629 200.883,287.962 202.5,288.5C 205.939,290.204 209.605,291.538 213.5,292.5C 218.4,293.975 223.4,294.975 228.5,295.5C 231.455,296.159 234.455,296.492 237.5,296.5C 247.2,297.695 256.866,297.361 266.5,295.5C 270.984,295.574 275.317,294.907 279.5,293.5C 280.791,293.737 281.791,293.404 282.5,292.5C 286.162,292.277 289.495,291.277 292.5,289.5C 301.306,287.428 309.306,283.761 316.5,278.5C 324.002,274.994 330.668,270.327 336.5,264.5C 339.255,262.99 341.588,260.99 343.5,258.5C 354.039,248.427 362.372,236.76 368.5,223.5C 372.797,216.61 376.13,209.277 378.5,201.5 Z"/></g>
<g><path style="opacity:0.008" fill="#f6f1e5" d="M 371.5,259.5 C 370.25,261.932 368.75,264.266 367,266.5C 366.184,267.823 365.017,268.489 363.5,268.5C 364.6,267.395 365.267,266.062 365.5,264.5C 367.5,262.833 369.5,261.167 371.5,259.5 Z"/></g>
<g><path style="opacity:0.997" fill="#906721" d="M 125.5,229.5 C 134.236,244.252 144.903,257.585 157.5,269.5C 155.636,270.978 154.303,272.978 153.5,275.5C 150.663,277.63 147.663,277.963 144.5,276.5C 143.391,276.443 142.391,276.11 141.5,275.5C 135.871,269.19 130.538,262.523 125.5,255.5C 125.425,251.796 125.425,248.129 125.5,244.5C 127.5,244.5 129.5,244.5 131.5,244.5C 131.33,241.324 129.663,239.324 126.5,238.5C 126.931,237.707 127.265,236.873 127.5,236C 125.987,234.121 125.321,231.954 125.5,229.5 Z"/></g>
<g><path style="opacity:0.998" fill="#8d6422" d="M 361.5,247.5 C 362.5,247.5 363.5,247.5 364.5,247.5C 364.318,249.591 364.652,251.591 365.5,253.5C 364.104,254.852 363.437,256.519 363.5,258.5C 364.204,260.535 364.871,262.535 365.5,264.5C 365.267,266.062 364.6,267.395 363.5,268.5C 360.833,270.5 358.5,272.833 356.5,275.5C 356.5,276.167 356.167,276.5 355.5,276.5C 352.55,278.115 349.884,280.115 347.5,282.5C 346.624,282.631 345.957,282.298 345.5,281.5C 346.5,280.833 347.5,280.167 348.5,279.5C 347.067,277.878 345.401,276.545 343.5,275.5C 344.274,274.289 345.107,274.289 346,275.5C 346.687,273.432 346.52,271.432 345.5,269.5C 344.635,268.417 343.635,268.251 342.5,269C 341.211,270.802 339.544,271.969 337.5,272.5C 345.721,264.401 353.721,256.067 361.5,247.5 Z"/></g>
<g><path style="opacity:0.008" fill="#faf6eb" d="M 363.5,268.5 C 362.167,271.833 359.833,274.167 356.5,275.5C 358.5,272.833 360.833,270.5 363.5,268.5 Z"/></g>
<g><path style="opacity:0.067" fill="#f2eeda" d="M 355.5,276.5 C 355.586,277.496 355.252,278.329 354.5,279C 352.266,280.75 349.932,282.25 347.5,283.5C 347.5,283.167 347.5,282.833 347.5,282.5C 349.884,280.115 352.55,278.115 355.5,276.5 Z"/></g>
<g><path style="opacity:0.999" fill="#a07b2f" d="M 157.5,269.5 C 164.685,274.257 171.685,279.257 178.5,284.5C 177.307,284.97 176.64,285.97 176.5,287.5C 176.833,288.5 177.167,289.5 177.5,290.5C 178.687,289.106 179.354,289.273 179.5,291C 179.095,291.945 178.428,292.612 177.5,293C 178.76,294.113 179.927,294.28 181,293.5C 181.483,294.448 181.649,295.448 181.5,296.5C 179.533,296.261 177.699,296.594 176,297.5C 173.186,294.419 169.686,292.753 165.5,292.5C 157.592,288.377 150.592,283.044 144.5,276.5C 147.663,277.963 150.663,277.63 153.5,275.5C 154.303,272.978 155.636,270.978 157.5,269.5 Z"/></g>
<g><path style="opacity:1" fill="#9a742c" d="M 347.5,282.5 C 347.5,282.833 347.5,283.167 347.5,283.5C 347.167,284.5 346.5,285.167 345.5,285.5C 341.608,287.062 338.275,289.395 335.5,292.5C 333.326,292.75 331.659,293.75 330.5,295.5C 329.833,295.5 329.167,295.5 328.5,295.5C 327.5,295.5 326.5,295.5 325.5,295.5C 325.5,294.5 325.5,293.5 325.5,292.5C 322.396,291.159 319.562,291.493 317,293.5C 315.933,292.809 314.766,292.309 313.5,292C 316.411,290.012 319.411,288.846 322.5,288.5C 324.167,286.833 323.833,285.833 321.5,285.5C 318.644,287.044 315.644,288.044 312.5,288.5C 320.828,283.174 329.162,277.841 337.5,272.5C 339.544,271.969 341.211,270.802 342.5,269C 343.635,268.251 344.635,268.417 345.5,269.5C 346.52,271.432 346.687,273.432 346,275.5C 345.107,274.289 344.274,274.289 343.5,275.5C 345.401,276.545 347.067,277.878 348.5,279.5C 347.5,280.167 346.5,280.833 345.5,281.5C 345.957,282.298 346.624,282.631 347.5,282.5 Z"/></g>
<g><path style="opacity:0.999" fill="#aa8a3b" d="M 178.5,284.5 C 185.902,287.871 193.235,291.204 200.5,294.5C 199.993,295.859 198.993,296.859 197.5,297.5C 197.742,300.319 197.742,303.319 197.5,306.5C 195.901,306.232 194.568,306.566 193.5,307.5C 183.236,304.038 173.903,299.038 165.5,292.5C 169.686,292.753 173.186,294.419 176,297.5C 177.699,296.594 179.533,296.261 181.5,296.5C 181.649,295.448 181.483,294.448 181,293.5C 179.927,294.28 178.76,294.113 177.5,293C 178.428,292.612 179.095,291.945 179.5,291C 179.354,289.273 178.687,289.106 177.5,290.5C 177.167,289.5 176.833,288.5 176.5,287.5C 176.64,285.97 177.307,284.97 178.5,284.5 Z"/></g>
<g><path style="opacity:0.999" fill="#a58232" d="M 328.5,295.5 C 324.653,298.593 320.32,300.926 315.5,302.5C 309.917,304.458 304.251,306.125 298.5,307.5C 298.458,303.991 299.124,300.658 300.5,297.5C 299.325,297.719 298.325,297.386 297.5,296.5C 300.185,295.984 302.185,294.65 303.5,292.5C 306.088,290.408 309.088,289.075 312.5,288.5C 315.644,288.044 318.644,287.044 321.5,285.5C 323.833,285.833 324.167,286.833 322.5,288.5C 319.411,288.846 316.411,290.012 313.5,292C 314.766,292.309 315.933,292.809 317,293.5C 319.562,291.493 322.396,291.159 325.5,292.5C 325.5,293.5 325.5,294.5 325.5,295.5C 326.5,295.5 327.5,295.5 328.5,295.5 Z"/></g>
<g><path style="opacity:0.059" fill="#f3eed9" d="M 345.5,285.5 C 342.875,288.815 339.542,291.149 335.5,292.5C 338.275,289.395 341.608,287.062 345.5,285.5 Z"/></g>
<g><path style="opacity:0.133" fill="#f1ead7" d="M 335.5,292.5 C 334.599,294.727 332.933,295.727 330.5,295.5C 331.659,293.75 333.326,292.75 335.5,292.5 Z"/></g>
<g><path style="opacity:1" fill="#131615" d="M 268.5,301.5 C 267.167,301.5 265.833,301.5 264.5,301.5C 254.494,301.666 244.494,301.5 234.5,301C 228.842,300.028 223.509,298.861 218.5,297.5C 219.833,297.167 221.167,296.833 222.5,296.5C 239.825,299.098 257.159,299.098 274.5,296.5C 277.037,296.397 279.371,296.897 281.5,298C 276.717,298.439 272.383,299.605 268.5,301.5 Z"/></g>
<g><path style="opacity:1" fill="#c2a850" d="M 200.5,294.5 C 202.117,295.038 203.784,295.371 205.5,295.5C 210.36,297.631 215.36,299.297 220.5,300.5C 218.5,300.5 216.5,300.5 214.5,300.5C 214.663,302.857 214.497,305.19 214,307.5C 213.503,304.854 213.336,302.187 213.5,299.5C 212.448,299.351 211.448,299.517 210.5,300C 211.347,304.105 212.013,308.272 212.5,312.5C 211.5,312.5 210.5,312.5 209.5,312.5C 203.903,311.634 198.57,309.967 193.5,307.5C 194.568,306.566 195.901,306.232 197.5,306.5C 197.742,303.319 197.742,300.319 197.5,297.5C 198.993,296.859 199.993,295.859 200.5,294.5 Z"/></g>
<g><path style="opacity:1" fill="#d6c062" d="M 220.5,300.5 C 220.833,300.5 221.167,300.5 221.5,300.5C 224.046,302.564 226.379,304.897 228.5,307.5C 227.624,308.251 226.624,308.751 225.5,309C 227.863,309.589 228.863,311.089 228.5,313.5C 226.167,313.5 223.833,313.5 221.5,313.5C 218.391,313.736 215.391,313.403 212.5,312.5C 212.013,308.272 211.347,304.105 210.5,300C 211.448,299.517 212.448,299.351 213.5,299.5C 213.336,302.187 213.503,304.854 214,307.5C 214.497,305.19 214.663,302.857 214.5,300.5C 216.5,300.5 218.5,300.5 220.5,300.5 Z"/></g>
<g><path style="opacity:1" fill="#bea65a" d="M 282.5,299.5 C 283.5,299.5 284.5,299.5 285.5,299.5C 285.073,302.788 285.74,305.788 287.5,308.5C 287.291,309.086 286.957,309.586 286.5,310C 288.25,311.319 290.25,311.819 292.5,311.5C 284.878,314.401 276.878,316.068 268.5,316.5C 268.5,316.167 268.5,315.833 268.5,315.5C 273.729,314.685 278.729,313.185 283.5,311C 282.544,307.606 282.211,304.106 282.5,300.5C 280.61,300.297 279.11,300.963 278,302.5C 278.409,304.225 278.242,305.892 277.5,307.5C 274.237,306.631 273.904,305.297 276.5,303.5C 273.02,302.194 269.687,302.194 266.5,303.5C 258.316,303.826 250.316,303.492 242.5,302.5C 250.019,302.825 257.352,302.492 264.5,301.5C 265.833,301.5 267.167,301.5 268.5,301.5C 273.147,300.704 277.814,300.037 282.5,299.5 Z"/></g>
<g><path style="opacity:0.999" fill="#b39442" d="M 303.5,292.5 C 302.185,294.65 300.185,295.984 297.5,296.5C 298.325,297.386 299.325,297.719 300.5,297.5C 299.124,300.658 298.458,303.991 298.5,307.5C 304.251,306.125 309.917,304.458 315.5,302.5C 308.45,306.85 300.783,309.85 292.5,311.5C 290.25,311.819 288.25,311.319 286.5,310C 286.957,309.586 287.291,309.086 287.5,308.5C 285.74,305.788 285.073,302.788 285.5,299.5C 284.5,299.5 283.5,299.5 282.5,299.5C 289.341,296.997 296.341,294.664 303.5,292.5 Z"/></g>
<g><path style="opacity:0.078" fill="#fbf8e9" d="M 141.5,275.5 C 142.391,276.11 143.391,276.443 144.5,276.5C 150.592,283.044 157.592,288.377 165.5,292.5C 173.903,299.038 183.236,304.038 193.5,307.5C 198.57,309.967 203.903,311.634 209.5,312.5C 212.534,314.018 215.867,314.851 219.5,315C 220.056,315.383 220.389,315.883 220.5,316.5C 191.168,311.344 165.501,298.844 143.5,279C 142.177,278.184 141.511,277.017 141.5,275.5 Z"/></g>
<g><path style="opacity:1" fill="#e1cf71" d="M 221.5,300.5 C 228.421,301.887 235.421,302.553 242.5,302.5C 250.316,303.492 258.316,303.826 266.5,303.5C 268.931,304.741 268.931,305.908 266.5,307C 268.314,309.481 268.98,312.315 268.5,315.5C 268.5,315.833 268.5,316.167 268.5,316.5C 258.5,317.833 248.5,317.833 238.5,316.5C 242.846,316.666 247.179,316.499 251.5,316C 252.167,313.333 252.833,310.667 253.5,308C 247.016,305.785 240.349,304.285 233.5,303.5C 233.5,307.833 233.5,312.167 233.5,316.5C 231.833,316.5 230.167,316.5 228.5,316.5C 226.221,315.349 223.888,314.349 221.5,313.5C 223.833,313.5 226.167,313.5 228.5,313.5C 228.863,311.089 227.863,309.589 225.5,309C 226.624,308.751 227.624,308.251 228.5,307.5C 226.379,304.897 224.046,302.564 221.5,300.5 Z"/></g>
<g><path style="opacity:1" fill="#f5e781" d="M 238.5,316.5 C 236.833,316.5 235.167,316.5 233.5,316.5C 233.5,312.167 233.5,307.833 233.5,303.5C 240.349,304.285 247.016,305.785 253.5,308C 252.833,310.667 252.167,313.333 251.5,316C 247.179,316.499 242.846,316.666 238.5,316.5 Z"/></g>
<g><path style="opacity:0.998" fill="#c9ae54" d="M 268.5,315.5 C 268.98,312.315 268.314,309.481 266.5,307C 268.931,305.908 268.931,304.741 266.5,303.5C 269.687,302.194 273.02,302.194 276.5,303.5C 273.904,305.297 274.237,306.631 277.5,307.5C 278.242,305.892 278.409,304.225 278,302.5C 279.11,300.963 280.61,300.297 282.5,300.5C 282.211,304.106 282.544,307.606 283.5,311C 278.729,313.185 273.729,314.685 268.5,315.5 Z"/></g>
<g><path style="opacity:0.961" fill="#d9cd8d" d="M 209.5,312.5 C 210.5,312.5 211.5,312.5 212.5,312.5C 215.391,313.403 218.391,313.736 221.5,313.5C 223.888,314.349 226.221,315.349 228.5,316.5C 226.167,316.5 223.833,316.5 221.5,316.5C 221.167,316.5 220.833,316.5 220.5,316.5C 220.389,315.883 220.056,315.383 219.5,315C 215.867,314.851 212.534,314.018 209.5,312.5 Z"/></g>
<g><path style="opacity:0.075" fill="#faf6dd" d="M 328.5,295.5 C 329.167,295.5 329.833,295.5 330.5,295.5C 330.047,296.458 329.381,297.292 328.5,298C 294.904,316.932 259.237,323.099 221.5,316.5C 223.833,316.5 226.167,316.5 228.5,316.5C 230.167,316.5 231.833,316.5 233.5,316.5C 235.167,316.5 236.833,316.5 238.5,316.5C 248.5,317.833 258.5,317.833 268.5,316.5C 276.878,316.068 284.878,314.401 292.5,311.5C 300.783,309.85 308.45,306.85 315.5,302.5C 320.32,300.926 324.653,298.593 328.5,295.5 Z"/></g>
</svg>
